<svg width="20" height="20" viewBox="0 0 20 20" fill="none" xmlns="http://www.w3.org/2000/svg">
<path d="M3.28568 16.25C2.95889 16.25 2.67687 16.1313 2.43962 15.8941C2.20237 15.6568 2.08374 15.3748 2.08374 15.048V4.95194C2.08374 4.62515 2.20237 4.34313 2.43962 4.10588C2.67687 3.86863 2.95889 3.75 3.28568 3.75H16.7151C17.0419 3.75 17.3239 3.86863 17.5612 4.10588C17.7984 4.34313 17.917 4.62515 17.917 4.95194V9.34613H3.02924V15.048C3.02924 15.1121 3.05595 15.1709 3.10937 15.2243C3.1628 15.2778 3.22157 15.3045 3.28568 15.3045H11.0132V16.25H3.28568ZM3.02924 7.00321H16.9715V4.95194C16.9715 4.88783 16.9448 4.82906 16.8914 4.77563C16.838 4.72221 16.7792 4.6955 16.7151 4.6955H3.28568C3.22157 4.6955 3.1628 4.72221 3.10937 4.77563C3.05595 4.82906 3.02924 4.88783 3.02924 4.95194V7.00321ZM16.3466 18.125V15.625H13.8466V14.6795H16.3466V12.1795H17.292V14.6795H19.792V15.625H17.292V18.125H16.3466Z" fill="#757575"/>
</svg>
