<svg width="20" height="20" viewBox="0 0 20 20" fill="none" xmlns="http://www.w3.org/2000/svg">
<path d="M9.99996 11.6666L8.33329 9.99996L9.99996 8.33329L11.6666 9.99996L9.99996 11.6666ZM8.22913 7.05925L6.81885 5.649L9.99996 2.4679L13.1811 5.649L11.7708 7.05925L9.99996 5.28842L8.22913 7.05925ZM5.649 13.1811L2.4679 9.99996L5.649 6.81885L7.05925 8.22913L5.28842 9.99996L7.05925 11.7708L5.649 13.1811ZM14.3509 13.1811L12.9407 11.7708L14.7115 9.99996L12.9407 8.22913L14.3509 6.81885L17.532 9.99996L14.3509 13.1811ZM9.99996 17.532L6.81885 14.3509L8.22913 12.9407L9.99996 14.7115L11.7708 12.9407L13.1811 14.3509L9.99996 17.532Z" fill="#757575"/>
</svg>
