<svg width="20" height="20" viewBox="0 0 20 20" fill="none" xmlns="http://www.w3.org/2000/svg">
<path d="M6.875 14.7917H13.125V13.5417H6.875V14.7917ZM6.875 11.4583H13.125V10.2084H6.875V11.4583ZM5.25642 17.9167C4.83547 17.9167 4.47917 17.7708 4.1875 17.4792C3.89583 17.1875 3.75 16.8312 3.75 16.4102V3.58979C3.75 3.16885 3.89583 2.81254 4.1875 2.52087C4.47917 2.22921 4.83547 2.08337 5.25642 2.08337H11.875L16.25 6.45833V16.4102C16.25 16.8312 16.1041 17.1875 15.8125 17.4792C15.5208 17.7708 15.1645 17.9167 14.7435 17.9167H5.25642ZM11.25 7.08333V3.33335H5.25642C5.19231 3.33335 5.13353 3.36006 5.0801 3.41348C5.02669 3.46691 4.99998 3.52568 4.99998 3.58979V16.4102C4.99998 16.4744 5.02669 16.5331 5.0801 16.5866C5.13353 16.64 5.19231 16.6667 5.25642 16.6667H14.7435C14.8077 16.6667 14.8664 16.64 14.9199 16.5866C14.9733 16.5331 15 16.4744 15 16.4102V7.08333H11.25Z" fill="#757575"/>
</svg>
