<svg width="20" height="20" viewBox="0 0 20 20" fill="none" xmlns="http://www.w3.org/2000/svg">
<path d="M9.51643 15.7786H10.4299V14.7353C11.1863 14.6755 11.8166 14.4432 12.3209 14.0382C12.8252 13.6333 13.0773 13.066 13.0773 12.3363C13.0773 11.66 12.8799 11.113 12.4852 10.6953C12.0904 10.2776 11.4085 9.87264 10.4395 9.48055C9.5805 9.14188 8.99182 8.84327 8.67345 8.58471C8.35507 8.32617 8.19589 7.96934 8.19589 7.51421C8.19589 7.07296 8.36416 6.71398 8.7007 6.43728C9.03724 6.16057 9.48436 6.02221 10.0421 6.02221C10.4587 6.02221 10.8198 6.11676 11.1254 6.30586C11.4309 6.49496 11.6906 6.76793 11.9042 7.12478L12.6879 6.7578C12.4518 6.31442 12.1446 5.96453 11.7664 5.70811C11.3882 5.45171 10.9566 5.30107 10.4715 5.25619V4.23376H9.55809V5.25619C8.83907 5.35341 8.28137 5.60983 7.88501 6.02542C7.48865 6.44102 7.29047 6.93728 7.29047 7.51421C7.29047 8.16271 7.49212 8.67767 7.89543 9.05907C8.29873 9.44047 8.93575 9.80478 9.80649 10.152C10.7317 10.5302 11.3586 10.8702 11.6871 11.172C12.0156 11.4739 12.1799 11.862 12.1799 12.3363C12.1799 12.8502 11.9772 13.2452 11.5717 13.5214C11.1663 13.7976 10.6884 13.9357 10.1382 13.9357C9.61256 13.9357 9.13928 13.7882 8.71834 13.4934C8.2974 13.1985 7.98757 12.7925 7.78884 12.2754L6.95874 12.5735C7.24506 13.1696 7.59602 13.6344 8.01162 13.9677C8.42721 14.301 8.92882 14.543 9.51643 14.6937V15.7786ZM10.0004 17.9164C8.91491 17.9164 7.89195 17.7084 6.93149 17.2922C5.97102 16.8761 5.13101 16.3082 4.41147 15.5887C3.69191 14.8692 3.12407 14.0291 2.70795 13.0687C2.29181 12.1082 2.08374 11.0852 2.08374 9.99978C2.08374 8.90576 2.29181 7.87719 2.70795 6.91405C3.12407 5.95091 3.69191 5.11304 4.41147 4.40044C5.13101 3.68783 5.97102 3.12346 6.93149 2.70734C7.89195 2.2912 8.91491 2.08313 10.0004 2.08313C11.0944 2.08313 12.123 2.2912 13.0861 2.70734C14.0493 3.12346 14.8871 3.68783 15.5997 4.40044C16.3123 5.11304 16.8767 5.95091 17.2928 6.91405C17.709 7.87719 17.917 8.90576 17.917 9.99978C17.917 11.0852 17.709 12.1082 17.2928 13.0687C16.8767 14.0291 16.3123 14.8692 15.5997 15.5887C14.8871 16.3082 14.0493 16.8761 13.0861 17.2922C12.123 17.7084 11.0944 17.9164 10.0004 17.9164ZM10.0004 16.9709C11.9406 16.9709 13.5875 16.292 14.9411 14.9341C16.2947 13.5762 16.9715 11.9314 16.9715 9.99978C16.9715 8.05961 16.2947 6.41271 14.9411 5.05907C13.5875 3.70544 11.9406 3.02863 10.0004 3.02863C8.06876 3.02863 6.424 3.70544 5.06609 5.05907C3.70819 6.41271 3.02924 8.05961 3.02924 9.99978C3.02924 11.9314 3.70819 13.5762 5.06609 14.9341C6.424 16.292 8.06876 16.9709 10.0004 16.9709Z" fill="#757575"/>
</svg>
