<svg width="20" height="20" viewBox="0 0 20 20" fill="none" xmlns="http://www.w3.org/2000/svg">
<path d="M4.74353 16.9872V6.47435H15.2564V16.9872H4.74353ZM9.42303 16.0577H10.5769V15.1282H9.42303V16.0577ZM9.39097 13.9744H10.6089C10.6623 13.5588 10.7887 13.1912 10.9879 12.8718C11.1872 12.5523 11.3974 12.2443 11.6185 11.9476C11.8397 11.6385 12.0365 11.3301 12.2091 11.0224C12.3816 10.7147 12.4679 10.3633 12.4679 9.96796C12.4679 9.28633 12.227 8.7046 11.7451 8.22277C11.2633 7.74092 10.6816 7.5 9.99995 7.5C9.31832 7.5 8.73659 7.74092 8.25476 8.22277C7.77291 8.7046 7.53199 9.28633 7.53199 9.96796C7.53199 10.3633 7.61826 10.7147 7.7908 11.0224C7.96336 11.3301 8.16021 11.6358 8.38136 11.9394C8.60252 12.2309 8.81272 12.539 9.01197 12.8638C9.21122 13.1886 9.33755 13.5588 9.39097 13.9744ZM5.64097 5.22435V4.48719H14.3589V5.22435H5.64097ZM6.49032 3.23719V2.5H13.5096V3.23719H6.49032Z" fill="#757575"/>
</svg>
