<svg width="20" height="20" viewBox="0 0 20 20" fill="none" xmlns="http://www.w3.org/2000/svg">
<path d="M10 18.7499C8.375 18.7499 6.90037 18.3477 5.57611 17.5432C4.25186 16.7387 3.21313 15.6607 2.45994 14.3092V16.7948H1.20996V12.2115H5.79327V13.4615H3.42625C4.02882 14.6752 4.91932 15.6517 6.09773 16.391C7.27616 17.1303 8.57692 17.5 10 17.5C11.0203 17.5 11.9773 17.3114 12.871 16.9343C13.7647 16.5571 14.547 16.0425 15.2179 15.3902C15.8889 14.738 16.4276 13.9677 16.8341 13.0793C17.2406 12.191 17.4599 11.234 17.492 10.2083H18.742C18.7153 11.3921 18.4677 12.5021 17.9992 13.5384C17.5307 14.5748 16.9025 15.4802 16.1146 16.2548C15.3266 17.0293 14.4078 17.6388 13.3582 18.0833C12.3085 18.5277 11.1891 18.75 10 18.75V18.7499ZM9.41027 15.673V14.6218C8.80023 14.4797 8.29302 14.2265 7.88865 13.8621C7.48426 13.4978 7.17416 13.0064 6.95836 12.3878L8.01281 11.9583C8.21154 12.5011 8.496 12.9135 8.86619 13.1955C9.23638 13.4776 9.65599 13.6186 10.125 13.6186C10.5994 13.6186 11.0251 13.5003 11.4023 13.2636C11.7794 13.027 11.968 12.6474 11.968 12.125C11.968 11.6901 11.8058 11.3437 11.4816 11.0857C11.1573 10.8277 10.5524 10.5363 9.66669 10.2115C8.80984 9.90383 8.19179 9.55927 7.81252 9.17786C7.43325 8.79645 7.24361 8.29272 7.24361 7.66665C7.24361 7.12926 7.43752 6.63727 7.82534 6.19069C8.21316 5.7441 8.75536 5.45938 9.45194 5.33652V4.32692H10.5897V5.33652C11.0577 5.37285 11.4885 5.54887 11.8822 5.86456C12.2759 6.18027 12.5598 6.55981 12.734 7.00319L11.7051 7.41663C11.562 7.10788 11.3574 6.8512 11.0914 6.64661C10.8253 6.44201 10.4754 6.33971 10.0417 6.33971C9.5235 6.33971 9.11725 6.46258 8.82292 6.70831C8.52857 6.95404 8.3814 7.27348 8.3814 7.66665C8.3814 8.05981 8.52509 8.3659 8.81248 8.58492C9.09987 8.80393 9.68161 9.06301 10.5577 9.36217C11.5577 9.72328 12.2297 10.1282 12.5737 10.5769C12.9177 11.0256 13.0897 11.5416 13.0897 12.125C13.0897 12.5224 13.0163 12.8712 12.8694 13.1715C12.7225 13.4717 12.5304 13.7241 12.2933 13.9287C12.0561 14.1333 11.786 14.2948 11.4832 14.4134C11.1803 14.532 10.8686 14.6154 10.5481 14.6634V15.673H9.41027ZM1.25804 9.79163C1.29545 8.58117 1.55106 7.45644 2.02488 6.41744C2.4987 5.37845 3.13224 4.47435 3.9255 3.70513C4.71878 2.9359 5.63625 2.33441 6.6779 1.90065C7.71957 1.46688 8.82693 1.25 10 1.25C11.609 1.25 13.0836 1.65358 14.4239 2.46075C15.7642 3.26792 16.8029 4.35527 17.5401 5.72281V3.20517H18.79V7.78846H14.2067V6.5385H16.5738C15.9872 5.34617 15.1034 4.375 13.9223 3.625C12.7412 2.87499 11.4338 2.49998 10 2.49998C9.00107 2.49998 8.05609 2.68588 7.16507 3.05767C6.27405 3.42946 5.4904 3.93881 4.81411 4.58571C4.13783 5.23261 3.59243 6.00024 3.1779 6.88858C2.76337 7.77695 2.54008 8.74463 2.50802 9.79163H1.25804Z" fill="#757575"/>
</svg>
