<svg width="20" height="20" viewBox="0 0 20 20" fill="none" xmlns="http://www.w3.org/2000/svg">
<path d="M9.26283 11.7307V10.2564H10.7372V11.7307H9.26283ZM5.9295 11.7307V10.2564H7.40383V11.7307H5.9295ZM12.5962 11.7307V10.2564H14.0705V11.7307H12.5962ZM9.26283 15V13.5256H10.7372V15H9.26283ZM5.9295 15V13.5256H7.40383V15H5.9295ZM12.5962 15V13.5256H14.0705V15H12.5962ZM2.91669 17.9166V3.74999H5.57696V1.98718H6.85898V3.74999H13.1731V1.98718H14.423V3.74999H17.0833V17.9166H2.91669ZM4.16667 16.6666H15.8333V8.58975H4.16667V16.6666ZM4.16667 7.33977H15.8333V4.99997H4.16667V7.33977Z" fill="#757575"/>
</svg>
