<svg width="20" height="20" viewBox="0 0 20 20" fill="none" xmlns="http://www.w3.org/2000/svg">
<path d="M10 14.2628C10.9562 14.2628 11.7668 13.9303 12.4319 13.2652C13.097 12.6002 13.4295 11.7895 13.4295 10.8333C13.4295 9.87714 13.097 9.06651 12.4319 8.40146C11.7668 7.7364 10.9562 7.40387 10 7.40387C9.04383 7.40387 8.2332 7.7364 7.56814 8.40146C6.90309 9.06651 6.57056 9.87714 6.57056 10.8333C6.57056 11.7895 6.90309 12.6002 7.56814 13.2652C8.2332 13.9303 9.04383 14.2628 10 14.2628ZM10 13.0128C9.38463 13.0128 8.86753 12.8034 8.44873 12.3846C8.02992 11.9658 7.82052 11.4487 7.82052 10.8333C7.82052 10.2179 8.02992 9.70085 8.44873 9.28204C8.86753 8.86324 9.38463 8.65383 10 8.65383C10.6154 8.65383 11.1325 8.86324 11.5513 9.28204C11.9701 9.70085 12.1795 10.2179 12.1795 10.8333C12.1795 11.4487 11.9701 11.9658 11.5513 12.3846C11.1325 12.8034 10.6154 13.0128 10 13.0128ZM3.58979 17.0833C3.16885 17.0833 2.81254 16.9375 2.52087 16.6458C2.22921 16.3541 2.08337 15.9978 2.08337 15.5769V6.08977C2.08337 5.66883 2.22921 5.31252 2.52087 5.02085C2.81254 4.72919 3.16885 4.58335 3.58979 4.58335H6.13464L7.67631 2.91669H12.3237L13.8654 4.58335H16.4102C16.8312 4.58335 17.1875 4.72919 17.4792 5.02085C17.7708 5.31252 17.9167 5.66883 17.9167 6.08977V15.5769C17.9167 15.9978 17.7708 16.3541 17.4792 16.6458C17.1875 16.9375 16.8312 17.0833 16.4102 17.0833H3.58979ZM3.58979 15.8333H16.4102C16.485 15.8333 16.5465 15.8093 16.5946 15.7612C16.6426 15.7131 16.6667 15.6517 16.6667 15.5769V6.08977C16.6667 6.01498 16.6426 5.95354 16.5946 5.90546C16.5465 5.85737 16.485 5.83333 16.4102 5.83333H13.3077L11.7789 4.16667H8.22117L6.69233 5.83333H3.58979C3.515 5.83333 3.45356 5.85737 3.40548 5.90546C3.3574 5.95354 3.33335 6.01498 3.33335 6.08977V15.5769C3.33335 15.6517 3.3574 15.7131 3.40548 15.7612C3.45356 15.8093 3.515 15.8333 3.58979 15.8333Z" fill="#757575"/>
</svg>
