<svg width="20" height="20" viewBox="0 0 20 20" fill="none" xmlns="http://www.w3.org/2000/svg">
<path d="M3.50006 14.5001V8.62827V8.90071V5.50006V14.5001ZM3.50006 7.33662H16.5001V5.7565C16.5001 5.69239 16.4734 5.63362 16.4199 5.58019C16.3665 5.52677 16.3077 5.50006 16.2436 5.50006H3.7565C3.69239 5.50006 3.63362 5.52677 3.58019 5.58019C3.52677 5.63362 3.50006 5.69239 3.50006 5.7565V7.33662ZM9.72602 15.5834H3.7565C3.39111 15.5834 3.07647 15.4514 2.81258 15.1875C2.54869 14.9237 2.41675 14.609 2.41675 14.2436V5.7565C2.41675 5.39111 2.54869 5.07647 2.81258 4.81258C3.07647 4.54869 3.39111 4.41675 3.7565 4.41675H16.2436C16.6187 4.41675 16.9358 4.54869 17.1948 4.81258C17.4539 5.07647 17.5834 5.39094 17.5834 5.75598V9.37987C17.171 9.14483 16.735 8.9608 16.2755 8.82779C15.8161 8.69478 15.3332 8.62827 14.827 8.62827C14.2504 8.62827 13.7021 8.71748 13.1822 8.89589C12.6623 9.07431 12.1967 9.33018 11.7854 9.6635H3.50006V14.2436C3.50006 14.3077 3.52677 14.3665 3.58019 14.4199C3.63362 14.4734 3.69239 14.5001 3.7565 14.5001H9.51608C9.53853 14.6936 9.56416 14.8795 9.593 15.0579C9.62185 15.2362 9.66619 15.4114 9.72602 15.5834ZM14.3687 17.5032L14.1988 16.593C13.9563 16.5289 13.7268 16.441 13.5105 16.3294C13.2941 16.2177 13.1016 16.0684 12.9327 15.8814L12.0434 16.1875L11.569 15.4103L12.2309 14.7533C12.1571 14.5054 12.1203 14.2506 12.1203 13.9888C12.1203 13.7271 12.1571 13.4723 12.2309 13.2244L11.569 12.5882L12.0434 11.7901L12.9119 12.0754C13.0754 11.8745 13.2701 11.7148 13.4961 11.5962C13.722 11.4776 13.9563 11.3932 14.1988 11.343L14.3895 10.4328H15.3061L15.4968 11.343C15.7393 11.4071 15.9771 11.495 16.21 11.6066C16.4429 11.7183 16.6341 11.8745 16.7837 12.0754L17.6523 11.811L18.1266 12.5882L17.4856 13.2036C17.5593 13.4514 17.5927 13.7097 17.5858 13.9784C17.5788 14.2471 17.5385 14.5054 17.4648 14.7533L18.1266 15.3895L17.6523 16.1667L16.7629 15.8814C16.5941 16.0684 16.4015 16.2177 16.1851 16.3294C15.9688 16.441 15.7393 16.5267 15.4968 16.5866L15.2853 17.5032H14.3687ZM14.8522 15.5321C15.2873 15.5321 15.656 15.3795 15.9584 15.0742C16.2607 14.7689 16.4119 14.3987 16.4119 13.9636C16.4119 13.5285 16.2593 13.1598 15.954 12.8574C15.6487 12.5551 15.2785 12.4039 14.8434 12.4039C14.4083 12.4039 14.0396 12.5565 13.7372 12.8619C13.4349 13.1672 13.2837 13.5374 13.2837 13.9724C13.2837 14.4075 13.4364 14.7762 13.7416 15.0786C14.047 15.3809 14.4171 15.5321 14.8522 15.5321Z" fill="#757575"/>
</svg>
