<svg width="20" height="20" viewBox="0 0 20 20" fill="none" xmlns="http://www.w3.org/2000/svg">
<path d="M17.6683 15.7403L16.9712 15.0352V9.3253H11.2612L9.07056 7.14263H16.9712V4.95195C16.9712 4.87715 16.9471 4.81572 16.899 4.76763C16.851 4.71955 16.7895 4.69551 16.7147 4.69551H6.63146L5.68596 3.75001H16.7147C17.0415 3.75001 17.3235 3.86863 17.5608 4.10588C17.798 4.34313 17.9167 4.62515 17.9167 4.95195V15.0491C17.9167 15.1751 17.8942 15.2967 17.8494 15.4139C17.8045 15.5311 17.7441 15.6399 17.6683 15.7403ZM7.9744 9.3253H3.02888V15.048C3.02888 15.1121 3.05559 15.1709 3.109 15.2243C3.16243 15.2778 3.2212 15.3045 3.28532 15.3045H13.9456L7.9744 9.3253ZM17.242 18.5929L14.891 16.25H3.28532C2.95852 16.25 2.6765 16.1314 2.43925 15.8941C2.202 15.6569 2.08338 15.3748 2.08338 15.0481V4.95197C2.08338 4.62518 2.202 4.34315 2.43925 4.10591C2.6765 3.86865 2.95852 3.75003 3.28532 3.75003H3.75004L4.69554 4.69553H3.28532C3.2212 4.69553 3.16243 4.72224 3.109 4.77566C3.05559 4.82909 3.02888 4.88786 3.02888 4.95197V7.14266H5.78373L1.05457 2.41347L1.73402 1.73401L17.9135 17.9135L17.242 18.5929Z" fill="#757575"/>
</svg>
