<svg width="20" height="20" viewBox="0 0 20 20" fill="none" xmlns="http://www.w3.org/2000/svg">
<path d="M6.20835 13.7916H8.79165V11.2083H6.20835V13.7916ZM11.2084 13.7916H13.7916V11.2083H11.2084V13.7916ZM6.20835 8.79159H8.79165V6.20829H6.20835V8.79159ZM11.2084 8.79159H13.7916V6.20829H11.2084V8.79159ZM4.75644 16.5833C4.38133 16.5833 4.06426 16.4537 3.80523 16.1947C3.5462 15.9357 3.41669 15.6186 3.41669 15.2435V4.75638C3.41669 4.38127 3.5462 4.0642 3.80523 3.80517C4.06426 3.54614 4.38133 3.41663 4.75644 3.41663H15.2436C15.6187 3.41663 15.9357 3.54614 16.1948 3.80517C16.4538 4.0642 16.5833 4.38127 16.5833 4.75638V15.2435C16.5833 15.6186 16.4538 15.9357 16.1948 16.1947C15.9357 16.4537 15.6187 16.5833 15.2436 16.5833H4.75644ZM4.75644 15.4999H15.2436C15.3077 15.4999 15.3664 15.4732 15.4199 15.4198C15.4733 15.3664 15.5 15.3076 15.5 15.2435V4.75638C15.5 4.69227 15.4733 4.63349 15.4199 4.58006C15.3664 4.52665 15.3077 4.49994 15.2436 4.49994H4.75644C4.69233 4.49994 4.63355 4.52665 4.58012 4.58006C4.52671 4.63349 4.5 4.69227 4.5 4.75638V15.2435C4.5 15.3076 4.52671 15.3664 4.58012 15.4198C4.63355 15.4732 4.69233 15.4999 4.75644 15.4999Z" fill="#757575"/>
</svg>
