<svg width="20" height="20" viewBox="0 0 20 20" fill="none" xmlns="http://www.w3.org/2000/svg">
<path d="M3.41675 10.5V4.75077C3.41675 4.37527 3.54869 4.05905 3.81258 3.8021C4.07647 3.54516 4.39111 3.41669 4.7565 3.41669H9.25006V10.5H3.41675ZM10.7501 3.41669H15.2436C15.6187 3.41669 15.9358 3.5462 16.1948 3.80523C16.4539 4.06426 16.5834 4.38221 16.5834 4.75908V8H10.7501V3.41669ZM10.7501 16.5833V9.5H16.5834V15.2436C16.5834 15.609 16.4539 15.9236 16.1948 16.1875C15.9358 16.4514 15.6187 16.5833 15.2436 16.5833H10.7501ZM3.41675 12H9.25006V16.5833H4.7565C4.39111 16.5833 4.07647 16.4514 3.81258 16.1875C3.54869 15.9236 3.41675 15.6081 3.41675 15.2409V12ZM4.50006 9.41669H8.16675V4.5H4.7565C4.68171 4.5 4.62027 4.52404 4.57219 4.57212C4.5241 4.62021 4.50006 4.68165 4.50006 4.75644V9.41669ZM11.8334 6.91669H15.5001V4.75644C15.5001 4.68165 15.476 4.62021 15.4279 4.57212C15.3799 4.52404 15.3184 4.5 15.2436 4.5H11.8334V6.91669ZM11.8334 10.5833V15.5H15.2436C15.3184 15.5 15.3799 15.476 15.4279 15.4279C15.476 15.3798 15.5001 15.3184 15.5001 15.2436V10.5833H11.8334ZM4.50006 13.0833V15.2436C4.50006 15.3184 4.5241 15.3798 4.57219 15.4279C4.62027 15.476 4.68171 15.5 4.7565 15.5H8.16675V13.0833H4.50006Z" fill="#757575"/>
</svg>
