<svg width="20" height="20" viewBox="0 0 20 20" fill="none" xmlns="http://www.w3.org/2000/svg">
<path d="M5.49511 15.6796C5.16954 15.6796 4.8923 15.5637 4.6634 15.3318C4.43451 15.1 4.32007 14.8213 4.32007 14.4957C4.32007 14.1702 4.43599 13.8929 4.66784 13.664C4.89967 13.4351 5.17837 13.3207 5.50394 13.3207C5.82951 13.3207 6.10675 13.4366 6.33565 13.6685C6.56454 13.9003 6.67899 14.179 6.67899 14.5046C6.67899 14.8301 6.56306 15.1074 6.33121 15.3363C6.09938 15.5652 5.82068 15.6796 5.49511 15.6796ZM9.99511 15.6796C9.66954 15.6796 9.3923 15.5637 9.1634 15.3318C8.93451 15.1 8.82007 14.8213 8.82007 14.4957C8.82007 14.1702 8.93599 13.8929 9.16784 13.664C9.39967 13.4351 9.67837 13.3207 10.0039 13.3207C10.3295 13.3207 10.6067 13.4366 10.8357 13.6685C11.0645 13.9003 11.179 14.179 11.179 14.5046C11.179 14.8301 11.0631 15.1074 10.8312 15.3363C10.5994 15.5652 10.3207 15.6796 9.99511 15.6796ZM14.4951 15.6796C14.1695 15.6796 13.8923 15.5637 13.6634 15.3318C13.4345 15.1 13.3201 14.8213 13.3201 14.4957C13.3201 14.1702 13.436 13.8929 13.6678 13.664C13.8997 13.4351 14.1784 13.3207 14.5039 13.3207C14.8295 13.3207 15.1067 13.4366 15.3357 13.6685C15.5645 13.9003 15.679 14.179 15.679 14.5046C15.679 14.8301 15.5631 15.1074 15.3312 15.3363C15.0994 15.5652 14.8207 15.6796 14.4951 15.6796ZM5.49511 11.1796C5.16954 11.1796 4.8923 11.0637 4.6634 10.8318C4.43451 10.6 4.32007 10.3213 4.32007 9.99572C4.32007 9.67015 4.43599 9.39292 4.66784 9.16401C4.89967 8.93512 5.17837 8.82068 5.50394 8.82068C5.82951 8.82068 6.10675 8.9366 6.33565 9.16845C6.56454 9.40028 6.67899 9.67898 6.67899 10.0046C6.67899 10.3301 6.56306 10.6074 6.33121 10.8363C6.09938 11.0652 5.82068 11.1796 5.49511 11.1796ZM9.99511 11.1796C9.66954 11.1796 9.3923 11.0637 9.1634 10.8318C8.93451 10.6 8.82007 10.3213 8.82007 9.99572C8.82007 9.67015 8.93599 9.39292 9.16784 9.16401C9.39967 8.93512 9.67837 8.82068 10.0039 8.82068C10.3295 8.82068 10.6067 8.9366 10.8357 9.16845C11.0645 9.40028 11.179 9.67898 11.179 10.0046C11.179 10.3301 11.0631 10.6074 10.8312 10.8363C10.5994 11.0652 10.3207 11.1796 9.99511 11.1796ZM14.4951 11.1796C14.1695 11.1796 13.8923 11.0637 13.6634 10.8318C13.4345 10.6 13.3201 10.3213 13.3201 9.99572C13.3201 9.67015 13.436 9.39292 13.6678 9.16401C13.8997 8.93512 14.1784 8.82068 14.5039 8.82068C14.8295 8.82068 15.1067 8.9366 15.3357 9.16845C15.5645 9.40028 15.679 9.67898 15.679 10.0046C15.679 10.3301 15.5631 10.6074 15.3312 10.8363C15.0994 11.0652 14.8207 11.1796 14.4951 11.1796ZM5.49511 6.6796C5.16954 6.6796 4.8923 6.56367 4.6634 6.33183C4.43451 6.09999 4.32007 5.82129 4.32007 5.49572C4.32007 5.17015 4.43599 4.89292 4.66784 4.66401C4.89967 4.43512 5.17837 4.32068 5.50394 4.32068C5.82951 4.32068 6.10675 4.4366 6.33565 4.66845C6.56454 4.90028 6.67899 5.17898 6.67899 5.50455C6.67899 5.83012 6.56306 6.10736 6.33121 6.33626C6.09938 6.56515 5.82068 6.6796 5.49511 6.6796ZM9.99511 6.6796C9.66954 6.6796 9.3923 6.56367 9.1634 6.33183C8.93451 6.09999 8.82007 5.82129 8.82007 5.49572C8.82007 5.17015 8.93599 4.89292 9.16784 4.66401C9.39967 4.43512 9.67837 4.32068 10.0039 4.32068C10.3295 4.32068 10.6067 4.4366 10.8357 4.66845C11.0645 4.90028 11.179 5.17898 11.179 5.50455C11.179 5.83012 11.0631 6.10736 10.8312 6.33626C10.5994 6.56515 10.3207 6.6796 9.99511 6.6796ZM14.4951 6.6796C14.1695 6.6796 13.8923 6.56367 13.6634 6.33183C13.4345 6.09999 13.3201 5.82129 13.3201 5.49572C13.3201 5.17015 13.436 4.89292 13.6678 4.66401C13.8997 4.43512 14.1784 4.32068 14.5039 4.32068C14.8295 4.32068 15.1067 4.4366 15.3357 4.66845C15.5645 4.90028 15.679 5.17898 15.679 5.50455C15.679 5.83012 15.5631 6.10736 15.3312 6.33626C15.0994 6.56515 14.8207 6.6796 14.4951 6.6796Z" fill="#757575"/>
</svg>
