<svg width="20" height="20" viewBox="0 0 20 20" fill="none" xmlns="http://www.w3.org/2000/svg">
<path d="M5.20835 11.7916H11.7916V10.7084H5.20835V11.7916ZM5.20835 9.04165H14.7916V7.95835H5.20835V9.04165ZM5.20835 6.29165H14.7916V5.20835H5.20835V6.29165ZM2.41669 17.1987V3.75644C2.41669 3.38133 2.5462 3.06426 2.80523 2.80523C3.06426 2.5462 3.38133 2.41669 3.75644 2.41669H16.2436C16.6187 2.41669 16.9357 2.5462 17.1948 2.80523C17.4538 3.06426 17.5833 3.38133 17.5833 3.75644V13.2436C17.5833 13.6187 17.4538 13.9357 17.1948 14.1948C16.9357 14.4538 16.6187 14.5833 16.2436 14.5833H5.03206L2.41669 17.1987ZM4.58335 13.5H16.2436C16.3077 13.5 16.3664 13.4733 16.4199 13.4199C16.4733 13.3664 16.5 13.3077 16.5 13.2436V3.75644C16.5 3.69233 16.4733 3.63356 16.4199 3.58013C16.3664 3.52671 16.3077 3.5 16.2436 3.5H3.75644C3.69233 3.5 3.63355 3.52671 3.58012 3.58013C3.52671 3.63356 3.5 3.69233 3.5 3.75644V14.5914L4.58335 13.5Z" fill="#757575"/>
</svg>
