<svg width="20" height="20" viewBox="0 0 20 20" fill="none" xmlns="http://www.w3.org/2000/svg">
<path d="M8.92154 12.7115L13.6074 8.04648L12.8334 7.27246L8.92154 11.1635L7.15071 9.41348L6.37669 10.1875L8.92154 12.7115ZM10.0015 17.5833C8.96207 17.5833 7.98148 17.386 7.05971 16.9912C6.13791 16.5965 5.3311 16.0534 4.63925 15.3619C3.94739 14.6703 3.40401 13.8639 3.0091 12.9425C2.6142 12.0212 2.41675 11.0408 2.41675 10.0014C2.41675 8.94812 2.61411 7.96406 3.00883 7.04923C3.40355 6.13438 3.94668 5.33104 4.63821 4.63919C5.32975 3.94733 6.1362 3.40394 7.05756 3.00904C7.97891 2.61414 8.95928 2.41669 9.99866 2.41669C11.0519 2.41669 12.036 2.61405 12.9508 3.00877C13.8657 3.40349 14.669 3.94662 15.3609 4.63815C16.0527 5.32969 16.5961 6.13267 16.991 7.04708C17.3859 7.96149 17.5834 8.94533 17.5834 9.9986C17.5834 11.038 17.386 12.0186 16.9913 12.9404C16.5966 13.8621 16.0534 14.669 15.3619 15.3608C14.6704 16.0527 13.8674 16.5961 12.953 16.991C12.0386 17.3859 11.0547 17.5833 10.0015 17.5833ZM10.0001 16.5C11.8056 16.5 13.3403 15.8681 14.6042 14.6042C15.8681 13.3403 16.5001 11.8056 16.5001 10C16.5001 8.19444 15.8681 6.65972 14.6042 5.39583C13.3403 4.13194 11.8056 3.5 10.0001 3.5C8.19451 3.5 6.65978 4.13194 5.39589 5.39583C4.132 6.65972 3.50006 8.19444 3.50006 10C3.50006 11.8056 4.132 13.3403 5.39589 14.6042C6.65978 15.8681 8.19451 16.5 10.0001 16.5Z" fill="#757575"/>
</svg>
