<svg width="20" height="20" viewBox="0 0 20 20" fill="none" xmlns="http://www.w3.org/2000/svg">
<path d="M5.20837 12.2917H11.5786L12.8286 11.0417H5.20837V12.2917ZM5.20837 8.95833H9.79167V7.70837H5.20837V8.95833ZM3.33335 5.83335V14.1667H9.70358L8.45362 15.4167H2.08337V4.58337H17.9167V7.20358H16.6667V5.83335H3.33335ZM18.5224 10.1058C18.5865 10.1699 18.6186 10.2409 18.6186 10.3189C18.6186 10.3969 18.5865 10.468 18.5224 10.5321L17.8205 11.234L16.7628 10.1763L17.4648 9.4744C17.5288 9.4103 17.5999 9.37825 17.6779 9.37825C17.7559 9.37825 17.8269 9.4103 17.891 9.4744L18.5224 10.1058ZM10.9616 17.0513V15.9936L16.2789 10.6763L17.3365 11.734L12.0192 17.0513H10.9616Z" fill="#757575"/>
</svg>
