<svg width="20" height="20" viewBox="0 0 20 20" fill="none" xmlns="http://www.w3.org/2000/svg">
<path d="M8.81733 13.5449L14.4199 7.94233L13.5417 7.06415L8.81733 11.7885L6.44233 9.4135L5.56414 10.2917L8.81733 13.5449ZM10.0014 17.9167C8.90647 17.9167 7.87728 17.7089 6.91383 17.2933C5.95037 16.8778 5.1123 16.3138 4.39962 15.6015C3.68693 14.8891 3.12271 14.0514 2.70698 13.0884C2.29124 12.1253 2.08337 11.0964 2.08337 10.0014C2.08337 8.90647 2.29115 7.87728 2.70671 6.91383C3.12226 5.95037 3.68622 5.11231 4.39858 4.39963C5.11096 3.68693 5.94866 3.12272 6.91169 2.70698C7.8747 2.29124 8.90368 2.08337 9.99862 2.08337C11.0936 2.08337 12.1228 2.29115 13.0862 2.70671C14.0497 3.12226 14.8877 3.68622 15.6004 4.39858C16.3131 5.11096 16.8773 5.94866 17.2931 6.91169C17.7088 7.8747 17.9167 8.90368 17.9167 9.99862C17.9167 11.0936 17.7089 12.1228 17.2933 13.0862C16.8778 14.0497 16.3138 14.8877 15.6015 15.6004C14.8891 16.3131 14.0514 16.8773 13.0884 17.2931C12.1253 17.7088 11.0964 17.9167 10.0014 17.9167Z" fill="#757575"/>
</svg>
