<svg width="20" height="20" viewBox="0 0 20 20" fill="none" xmlns="http://www.w3.org/2000/svg">
<path d="M9.997 6.5366C9.997 5.09537 9.13472 3.87032 7.84129 3.29382C6.54786 2.71733 5.03886 3.00557 4.03286 4.01444C3.02686 5.0233 2.73943 6.5366 3.24243 7.83371C3.74543 9.13083 5.03886 9.99557 6.476 9.99557H9.997V6.5366ZM11.003 6.5366C11.003 5.09537 11.8653 3.87032 13.1587 3.29382C14.4521 2.71733 15.9611 3.00557 16.9671 4.01444C17.9731 5.0233 18.2606 6.5366 17.7576 7.83371C17.2546 9.13083 15.9611 9.99557 14.524 9.99557H11.003V6.5366ZM11.003 14.4634C11.003 15.9046 11.8653 17.1297 13.1587 17.7062C14.4521 18.2827 15.9611 17.9944 16.9671 16.9856C17.9731 15.9767 18.2606 14.4634 17.7576 13.1663C17.2546 11.8692 15.9611 11.0044 14.524 11.0044H11.003V14.4634ZM6.476 16.9856C7.84129 16.9856 8.991 15.9046 8.991 14.4634V11.9412H6.476C5.11072 11.9412 3.96101 13.0222 3.96101 14.4634C3.96101 15.9046 5.11072 16.9856 6.476 16.9856ZM9.997 14.4634C9.997 15.9046 9.13472 17.1297 7.84129 17.7062C6.54786 18.2827 5.03886 17.9944 4.03286 16.9856C3.02686 15.9767 2.73943 14.4634 3.24243 13.1663C3.74543 11.8692 5.03886 11.0044 6.476 11.0044H9.997V14.4634Z" fill="#757575"/>
</svg>
