<svg width="20" height="20" viewBox="0 0 20 20" fill="none" xmlns="http://www.w3.org/2000/svg">
<path d="M3.75644 14.5001H7.11381V5.50006H3.75644C3.68165 5.50006 3.62021 5.5241 3.57212 5.57219C3.52404 5.62027 3.5 5.68171 3.5 5.7565V14.2436C3.5 14.3184 3.52404 14.3799 3.57212 14.4279C3.62021 14.476 3.68165 14.5001 3.75644 14.5001ZM8.1971 14.5001H11.8029V5.50006H8.1971V14.5001ZM12.8862 14.5001H16.2436C16.3184 14.5001 16.3798 14.476 16.4279 14.4279C16.476 14.3799 16.5 14.3184 16.5 14.2436V5.7565C16.5 5.68171 16.476 5.62027 16.4279 5.57219C16.3798 5.5241 16.3184 5.50006 16.2436 5.50006H12.8862V14.5001ZM3.75644 15.5834C3.39105 15.5834 3.07641 15.4514 2.81252 15.1875C2.54863 14.9237 2.41669 14.609 2.41669 14.2436V5.7565C2.41669 5.39111 2.54863 5.07647 2.81252 4.81258C3.07641 4.54869 3.39105 4.41675 3.75644 4.41675H16.2436C16.6187 4.41675 16.9357 4.54869 17.1948 4.81258C17.4538 5.07647 17.5833 5.39111 17.5833 5.7565V14.2436C17.5833 14.609 17.4538 14.9237 17.1948 15.1875C16.9357 15.4514 16.6187 15.5834 16.2436 15.5834H3.75644Z" fill="#757575"/>
</svg>
