<svg width="20" height="20" viewBox="0 0 20 20" fill="none" xmlns="http://www.w3.org/2000/svg">
<path d="M7.54804 14.5833C7.17293 14.5833 6.85587 14.4537 6.59685 14.1947C6.33783 13.9357 6.20831 13.6186 6.20831 13.2435V3.75638C6.20831 3.38127 6.33783 3.0642 6.59685 2.80517C6.85587 2.54614 7.17293 2.41663 7.54804 2.41663H15.0352C15.4103 2.41663 15.7273 2.54614 15.9864 2.80517C16.2454 3.0642 16.3749 3.38127 16.3749 3.75638V13.2435C16.3749 13.6186 16.2454 13.9357 15.9864 14.1947C15.7273 14.4537 15.4103 14.5833 15.0352 14.5833H7.54804ZM7.54804 13.4999H15.0352C15.0993 13.4999 15.158 13.4732 15.2115 13.4198C15.2649 13.3664 15.2916 13.3076 15.2916 13.2435V3.75638C15.2916 3.69227 15.2649 3.63349 15.2115 3.58006C15.158 3.52665 15.0993 3.49994 15.0352 3.49994H7.54804C7.48393 3.49994 7.42517 3.52665 7.37175 3.58006C7.31832 3.63349 7.2916 3.69227 7.2916 3.75638V13.2435C7.2916 13.3076 7.31832 13.3664 7.37175 13.4198C7.42517 13.4732 7.48393 13.4999 7.54804 13.4999ZM4.96473 17.1665C4.58963 17.1665 4.27257 17.037 4.01354 16.778C3.75451 16.519 3.625 16.2019 3.625 15.8268V5.25638H4.70831V15.8268C4.70831 15.8909 4.73502 15.9497 4.78844 16.0031C4.84187 16.0565 4.90063 16.0833 4.96473 16.0833H13.5352V17.1665H4.96473Z" fill="#757575"/>
</svg>
