<svg width="20" height="20" viewBox="0 0 20 20" fill="none" xmlns="http://www.w3.org/2000/svg">
<path d="M2.66479 15.4231V13.9872C2.66479 13.6719 2.74092 13.3935 2.89317 13.1522C3.04541 12.9108 3.25813 12.7103 3.53134 12.5506C4.21218 12.1494 4.92867 11.8334 5.68079 11.6026C6.43293 11.3719 7.28871 11.2565 8.24811 11.2565C9.20751 11.2565 10.0633 11.3719 10.8154 11.6026C11.5675 11.8334 12.284 12.1494 12.9649 12.5506C13.2381 12.7103 13.4508 12.9108 13.603 13.1522C13.7553 13.3935 13.8314 13.6719 13.8314 13.9872V15.4231H2.66479ZM15.3314 15.4231V14.0513C15.3314 13.5321 15.2322 13.0559 15.0338 12.6228C14.8353 12.1897 14.5735 11.8373 14.2481 11.5658C14.6402 11.6769 15.0283 11.8128 15.4123 11.9736C15.7964 12.1344 16.1749 12.327 16.5477 12.5513C16.7838 12.6838 16.974 12.8863 17.1182 13.1588C17.2625 13.4313 17.3346 13.7288 17.3346 14.0513V15.4231H15.3314ZM8.24811 9.7436C7.52937 9.7436 6.91914 9.49273 6.4174 8.99101C5.91566 8.48928 5.66479 7.87904 5.66479 7.1603C5.66479 6.44155 5.91566 5.83132 6.4174 5.32959C6.91914 4.82786 7.52937 4.57699 8.24811 4.57699C8.96684 4.57699 9.57708 4.82786 10.0788 5.32959C10.5805 5.83132 10.8314 6.44155 10.8314 7.1603C10.8314 7.87904 10.5805 8.48928 10.0788 8.99101C9.57708 9.49273 8.96684 9.7436 8.24811 9.7436ZM14.1102 7.1603C14.1102 7.87904 13.8593 8.48928 13.3576 8.99101C12.8559 9.49273 12.2456 9.7436 11.5269 9.7436C11.4746 9.7436 11.4452 9.7468 11.4388 9.75322C11.4324 9.75964 11.403 9.75697 11.3506 9.74522C11.6515 9.39179 11.8902 8.99862 12.0667 8.5657C12.2432 8.13278 12.3314 7.66398 12.3314 7.1593C12.3314 6.65464 12.2414 6.18782 12.0614 5.75887C11.8814 5.32992 11.6445 4.93543 11.3506 4.57539C11.387 4.57432 11.4163 4.57432 11.4388 4.57539C11.4612 4.57646 11.4906 4.57699 11.5269 4.57699C12.2456 4.57699 12.8559 4.82786 13.3576 5.32959C13.8593 5.83132 14.1102 6.44155 14.1102 7.1603ZM3.74811 14.3398H12.7481V13.9872C12.7481 13.876 12.7218 13.7782 12.6691 13.694C12.6164 13.6098 12.5236 13.5312 12.3907 13.4583C11.8021 13.1047 11.1653 12.8299 10.4805 12.6338C9.79565 12.4378 9.05152 12.3398 8.24811 12.3398C7.44469 12.3398 6.70057 12.4343 6.01573 12.6234C5.33091 12.8125 4.69416 13.0908 4.10548 13.4583C3.97264 13.5297 3.87986 13.606 3.82715 13.6873C3.77445 13.7687 3.74811 13.868 3.74811 13.9853V14.3398ZM8.25252 8.6603C8.66625 8.6603 9.01894 8.51299 9.31061 8.21837C9.60227 7.92375 9.74811 7.56959 9.74811 7.15587C9.74811 6.74216 9.6008 6.38947 9.30619 6.0978C9.01157 5.80614 8.6574 5.6603 8.24369 5.6603C7.82997 5.6603 7.47727 5.80761 7.18561 6.10222C6.89394 6.39685 6.74811 6.75101 6.74811 7.16472C6.74811 7.57844 6.89541 7.93114 7.19002 8.2228C7.48465 8.51447 7.83882 8.6603 8.25252 8.6603Z" fill="#757575"/>
</svg>
