<svg width="20" height="20" viewBox="0 0 20 20" fill="none" xmlns="http://www.w3.org/2000/svg">
<path d="M4.1182 17.0835C3.79141 17.0835 3.50938 16.9649 3.27213 16.7276C3.03488 16.4904 2.91626 16.2084 2.91626 15.8816V4.11881C2.91626 3.79202 3.03488 3.51 3.27213 3.27275C3.50938 3.0355 3.79141 2.91687 4.1182 2.91687H15.8809C16.2077 2.91687 16.4898 3.0355 16.727 3.27275C16.9643 3.51 17.0829 3.79202 17.0829 4.11881V15.8816C17.0829 16.2084 16.9643 16.4904 16.727 16.7276C16.4898 16.9649 16.2077 17.0835 15.8809 17.0835H4.1182ZM3.86176 7.32391H16.1374V4.11881C16.1374 4.0547 16.1107 3.99593 16.0573 3.9425C16.0038 3.88908 15.9451 3.86237 15.8809 3.86237H4.1182C4.05409 3.86237 3.99532 3.88908 3.94188 3.9425C3.88847 3.99593 3.86176 4.0547 3.86176 4.11881V7.32391ZM3.86176 11.731H16.1374V8.26941H3.86176V11.731ZM4.1182 16.138H15.8809C15.9451 16.138 16.0038 16.1113 16.0573 16.0579C16.1107 16.0044 16.1374 15.9457 16.1374 15.8816V12.6765H3.86176V15.8816C3.86176 15.9457 3.88847 16.0044 3.94188 16.0579C3.99532 16.1113 4.05409 16.138 4.1182 16.138ZM5.36657 6.1941V4.99218H6.56851V6.1941H5.36657ZM5.36657 10.6011V9.39922H6.56851V10.6011H5.36657ZM5.36657 15.0082V13.8063H6.56851V15.0082H5.36657Z" fill="#757575"/>
</svg>
