<svg width="20" height="20" viewBox="0 0 20 20" fill="none" xmlns="http://www.w3.org/2000/svg">
<path d="M6.7565 16.5833C6.38673 16.5833 6.071 16.4525 5.80931 16.1908C5.5476 15.9291 5.41675 15.6134 5.41675 15.2436V5.50002H4.41675V4.41671H8.00006V3.51288H12.0001V4.41671H15.5834V5.50002H14.5834V15.2345C14.5834 15.6199 14.4539 15.941 14.1948 16.1979C13.9358 16.4549 13.6187 16.5833 13.2436 16.5833H6.7565ZM13.5001 5.50002H6.50006V15.2436C6.50006 15.3184 6.5241 15.3798 6.57219 15.4279C6.62027 15.476 6.68171 15.5 6.7565 15.5H13.2436C13.3077 15.5 13.3665 15.4733 13.4199 15.4199C13.4734 15.3665 13.5001 15.3077 13.5001 15.2436V5.50002ZM8.33662 14H9.41994V7.00002H8.33662V14ZM10.5802 14H11.6635V7.00002H10.5802V14Z" fill="#757575"/>
</svg>
