<svg width="20" height="20" viewBox="0 0 20 20" fill="none" xmlns="http://www.w3.org/2000/svg">
<path d="M10 7.08337L6.12985 10.9536L7.00002 11.8237L9.37504 9.47756V17.7404H10.625V9.47756L13 11.8237L13.8702 10.9536L10 7.08337ZM3.25804 14.1266C2.87771 13.5048 2.58685 12.8453 2.38546 12.148C2.18407 11.4507 2.08337 10.7347 2.08337 10C2.08337 8.90488 2.29115 7.87572 2.70671 6.91254C3.12226 5.94935 3.68622 5.1115 4.39858 4.399C5.11096 3.6865 5.94866 3.12244 6.91169 2.70681C7.8747 2.29119 8.90368 2.08337 9.99862 2.08337C11.0936 2.08337 12.1228 2.29119 13.0862 2.70681C14.0497 3.12244 14.8877 3.6865 15.6004 4.399C16.3131 5.1115 16.8773 5.94935 17.2931 6.91254C17.7088 7.87572 17.9167 8.90488 17.9167 10C17.9167 10.7347 17.816 11.4507 17.6146 12.148C17.4132 12.8453 17.1223 13.5048 16.742 14.1266L15.8382 13.2228C16.117 12.7196 16.3248 12.1981 16.4616 11.6585C16.5983 11.1188 16.6667 10.566 16.6667 10C16.6667 8.13891 16.0209 6.56252 14.7292 5.27085C13.4375 3.97919 11.8611 3.33335 10 3.33335C8.13891 3.33335 6.56252 3.97919 5.27085 5.27085C3.97919 6.56252 3.33335 8.13891 3.33335 10C3.33335 10.5705 3.40306 11.1276 3.54248 11.6713C3.68191 12.215 3.89105 12.7321 4.1699 13.2228L3.25804 14.1266Z" fill="#757575"/>
</svg>
