<svg width="20" height="20" viewBox="0 0 20 20" fill="none" xmlns="http://www.w3.org/2000/svg">
<path d="M7.4956 15.6795C7.17003 15.6795 6.89279 15.5636 6.66389 15.3317C6.435 15.0999 6.32056 14.8212 6.32056 14.4956C6.32056 14.17 6.43648 13.8928 6.66833 13.6639C6.90016 13.435 7.17886 13.3206 7.50443 13.3206C7.83 13.3206 8.10724 13.4365 8.33614 13.6683C8.56503 13.9002 8.67947 14.1789 8.67947 14.5044C8.67947 14.83 8.56355 15.1072 8.3317 15.3361C8.09987 15.565 7.82117 15.6795 7.4956 15.6795ZM12.4956 15.6795C12.17 15.6795 11.8928 15.5636 11.6639 15.3317C11.435 15.0999 11.3206 14.8212 11.3206 14.4956C11.3206 14.17 11.4365 13.8928 11.6683 13.6639C11.9002 13.435 12.1789 13.3206 12.5044 13.3206C12.83 13.3206 13.1072 13.4365 13.3361 13.6683C13.565 13.9002 13.6795 14.1789 13.6795 14.5044C13.6795 14.83 13.5636 15.1072 13.3317 15.3361C13.0999 15.565 12.8212 15.6795 12.4956 15.6795ZM7.4956 11.1795C7.17003 11.1795 6.89279 11.0635 6.66389 10.8317C6.435 10.5999 6.32056 10.3212 6.32056 9.9956C6.32056 9.67003 6.43648 9.39279 6.66833 9.16389C6.90016 8.935 7.17886 8.82056 7.50443 8.82056C7.83 8.82056 8.10724 8.93648 8.33614 9.16833C8.56503 9.40016 8.67947 9.67886 8.67947 10.0044C8.67947 10.33 8.56355 10.6072 8.3317 10.8361C8.09987 11.065 7.82117 11.1795 7.4956 11.1795ZM12.4956 11.1795C12.17 11.1795 11.8928 11.0635 11.6639 10.8317C11.435 10.5999 11.3206 10.3212 11.3206 9.9956C11.3206 9.67003 11.4365 9.39279 11.6683 9.16389C11.9002 8.935 12.1789 8.82056 12.5044 8.82056C12.83 8.82056 13.1072 8.93648 13.3361 9.16833C13.565 9.40016 13.6795 9.67886 13.6795 10.0044C13.6795 10.33 13.5636 10.6072 13.3317 10.8361C13.0999 11.065 12.8212 11.1795 12.4956 11.1795ZM7.4956 6.67947C7.17003 6.67947 6.89279 6.56355 6.66389 6.3317C6.435 6.09987 6.32056 5.82117 6.32056 5.4956C6.32056 5.17003 6.43648 4.89279 6.66833 4.66389C6.90016 4.435 7.17886 4.32056 7.50443 4.32056C7.83 4.32056 8.10724 4.43648 8.33614 4.66833C8.56503 4.90016 8.67947 5.17886 8.67947 5.50443C8.67947 5.83 8.56355 6.10724 8.3317 6.33614C8.09987 6.56503 7.82117 6.67947 7.4956 6.67947ZM12.4956 6.67947C12.17 6.67947 11.8928 6.56355 11.6639 6.3317C11.435 6.09987 11.3206 5.82117 11.3206 5.4956C11.3206 5.17003 11.4365 4.89279 11.6683 4.66389C11.9002 4.435 12.1789 4.32056 12.5044 4.32056C12.83 4.32056 13.1072 4.43648 13.3361 4.66833C13.565 4.90016 13.6795 5.17886 13.6795 5.50443C13.6795 5.83 13.5636 6.10724 13.3317 6.33614C13.0999 6.56503 12.8212 6.67947 12.4956 6.67947Z" fill="#757575"/>
</svg>
