<svg width="20" height="20" viewBox="0 0 20 20" fill="none" xmlns="http://www.w3.org/2000/svg">
<path d="M4.29488 15.8334H5.32532L13.0417 8.11699L12.0113 7.08653L4.29488 14.8029V15.8334ZM15.7147 7.21315L12.9023 4.42634L13.9888 3.33982C14.2335 3.09517 14.531 2.97284 14.8814 2.97284C15.2318 2.97284 15.5294 3.09517 15.774 3.33982L16.7884 4.35421C17.0331 4.59887 17.1597 4.89213 17.1682 5.23401C17.1768 5.57588 17.0587 5.86914 16.8141 6.1138L15.7147 7.21315ZM14.8109 8.1298L5.85736 17.0833H3.04492V14.2709L11.9984 5.31734L14.8109 8.1298ZM12.5225 7.59776L12.0113 7.08653L13.0417 8.11699L12.5225 7.59776Z" fill="#757575"/>
</svg>
