<svg width="20" height="20" viewBox="0 0 20 20" fill="none" xmlns="http://www.w3.org/2000/svg">
<path d="M3.7565 15.5834C3.38139 15.5834 3.06432 15.4538 2.80529 15.1946C2.54626 14.9354 2.41675 14.6181 2.41675 14.2428V5.75058C2.41675 5.37525 2.54626 5.05911 2.80529 4.80216C3.06432 4.54522 3.38139 4.41675 3.7565 4.41675H16.2436C16.6187 4.41675 16.9358 4.54635 17.1948 4.80554C17.4539 5.06474 17.5834 5.382 17.5834 5.75733V14.2495C17.5834 14.6249 17.4539 14.941 17.1948 15.198C16.9358 15.4549 16.6187 15.5834 16.2436 15.5834H3.7565ZM10.0001 10.6314L3.50006 6.80612V14.2436C3.50006 14.3184 3.5241 14.3799 3.57219 14.4279C3.62027 14.476 3.68171 14.5001 3.7565 14.5001H16.2436C16.3184 14.5001 16.3799 14.476 16.4279 14.4279C16.476 14.3799 16.5001 14.3184 16.5001 14.2436V6.80612L10.0001 10.6314ZM10.0001 9.22923L16.3719 5.50006H3.62827L10.0001 9.22923ZM3.50006 6.80612V5.50006V14.2436C3.50006 14.3184 3.5241 14.3799 3.57219 14.4279C3.62027 14.476 3.68171 14.5001 3.7565 14.5001H3.50006V6.80612Z" fill="#757575"/>
</svg>
