<svg width="20" height="20" viewBox="0 0 20 20" fill="none" xmlns="http://www.w3.org/2000/svg">
<path d="M9.99566 13.7756C10.1615 13.7756 10.302 13.7195 10.4171 13.6073C10.5322 13.4951 10.5898 13.3561 10.5898 13.1902C10.5898 13.0244 10.5337 12.8839 10.4215 12.7688C10.3093 12.6537 10.1703 12.5961 10.0045 12.5961C9.8386 12.5961 9.69811 12.6522 9.583 12.7644C9.46789 12.8766 9.41033 13.0156 9.41033 13.1814C9.41033 13.3473 9.46643 13.4878 9.57862 13.6029C9.6908 13.718 9.82982 13.7756 9.99566 13.7756ZM9.45842 11.064H10.5417V6.06404H9.45842V11.064ZM10.0072 17.5833C8.96398 17.5833 7.98148 17.3859 7.05971 16.9912C6.13791 16.5964 5.3311 16.0533 4.63925 15.3618C3.94739 14.6703 3.40401 13.8641 3.0091 12.9433C2.6142 12.0225 2.41675 11.0387 2.41675 9.99179C2.41675 8.94488 2.61411 7.964 3.00883 7.04917C3.40355 6.13432 3.94668 5.33097 4.63821 4.63913C5.32975 3.94727 6.13591 3.40388 7.05669 3.00898C7.97746 2.61408 8.9613 2.41663 10.0082 2.41663C11.0551 2.41663 12.036 2.61399 12.9508 3.00871C13.8657 3.40343 14.669 3.94656 15.3609 4.63808C16.0527 5.32963 16.5961 6.13416 16.991 7.05169C17.3859 7.96922 17.5834 8.94959 17.5834 9.99279C17.5834 11.036 17.386 12.0185 16.9913 12.9403C16.5966 13.8621 16.0534 14.6689 15.3619 15.3608C14.6704 16.0526 13.8658 16.596 12.9483 16.9909C12.0308 17.3858 11.0504 17.5833 10.0072 17.5833Z" fill="#9A0000"/>
</svg>
