<svg width="20" height="20" viewBox="0 0 20 20" fill="none" xmlns="http://www.w3.org/2000/svg">
<path d="M5.75052 18.5833C5.37519 18.5833 5.05905 18.4538 4.8021 18.1948C4.54516 17.9358 4.41669 17.6187 4.41669 17.2436V8.75645C4.41669 8.38134 4.5462 8.06427 4.80523 7.80524C5.06426 7.54621 5.38133 7.4167 5.75644 7.4167H7.88781V8.50001H5.75644C5.69233 8.50001 5.63356 8.52672 5.58012 8.58014C5.52671 8.63357 5.5 8.69234 5.5 8.75645V17.2436C5.5 17.3077 5.52671 17.3665 5.58012 17.4199C5.63356 17.4733 5.69233 17.5 5.75644 17.5H14.2436C14.3077 17.5 14.3664 17.4733 14.4199 17.4199C14.4733 17.3665 14.5 17.3077 14.5 17.2436V8.75645C14.5 8.69234 14.4733 8.63357 14.4199 8.58014C14.3664 8.52672 14.3077 8.50001 14.2436 8.50001H12.1122V7.4167H14.2436C14.6228 7.4167 14.941 7.54621 15.1979 7.80524C15.4548 8.06427 15.5833 8.38134 15.5833 8.75645V17.2436C15.5833 17.6187 15.4537 17.9358 15.1945 18.1948C14.9353 18.4538 14.6181 18.5833 14.2427 18.5833H5.75052ZM9.45835 12.7917V3.78687L8.0625 5.18272L7.28848 4.4167L10 1.7052L12.7115 4.4167L11.9375 5.18272L10.5416 3.78687V12.7917H9.45835Z" fill="#757575"/>
</svg>
