<svg width="20" height="20" viewBox="0 0 20 20" fill="none" xmlns="http://www.w3.org/2000/svg">
<path d="M11.1534 10.8977C10.5711 10.8977 10.0784 10.696 9.67507 10.2927C9.27176 9.8894 9.07011 9.39662 9.07011 8.81435C9.07011 8.2321 9.27176 7.73932 9.67507 7.33602C10.0784 6.93271 10.5711 6.73106 11.1534 6.73106C11.7357 6.73106 12.2284 6.93271 12.6318 7.33602C13.0351 7.73932 13.2367 8.2321 13.2367 8.81435C13.2367 9.39662 13.0351 9.8894 12.6318 10.2927C12.2284 10.696 11.7357 10.8977 11.1534 10.8977ZM5.04767 13.7823C4.72128 13.7823 4.43936 13.6635 4.20192 13.4261C3.96447 13.1887 3.84575 12.9067 3.84575 12.5804V5.04835C3.84575 4.72196 3.96447 4.44005 4.20192 4.2026C4.43936 3.96516 4.72128 3.84644 5.04767 3.84644H17.2591C17.5855 3.84644 17.8674 3.96516 18.1049 4.2026C18.3423 4.44005 18.461 4.72196 18.461 5.04835V12.5804C18.461 12.9067 18.3423 13.1887 18.1049 13.4261C17.8674 13.6635 17.5855 13.7823 17.2591 13.7823H5.04767ZM6.60213 12.8368H15.7047C15.7047 12.3336 15.881 11.906 16.2337 11.5539C16.5864 11.2019 17.0137 11.0259 17.5156 11.0259V6.60281C17.0124 6.60281 16.5847 6.42646 16.2327 6.07377C15.8807 5.72107 15.7047 5.2938 15.7047 4.79193H6.60213C6.60213 5.29513 6.42578 5.72274 6.07309 6.07477C5.72039 6.4268 5.29311 6.60281 4.79125 6.60281V11.0259C5.29445 11.0259 5.72206 11.2022 6.07409 11.5549C6.42611 11.9076 6.60213 12.3349 6.60213 12.8368ZM15.9771 16.09H2.74C2.41361 16.09 2.1317 15.9712 1.89425 15.7338C1.65681 15.4963 1.53809 15.2144 1.53809 14.888V6.33042H2.48357V14.888C2.48357 14.9521 2.51028 15.0109 2.56371 15.0643C2.61713 15.1177 2.67589 15.1445 2.74 15.1445H15.9771V16.09ZM5.04767 12.8368H4.79125V4.79193H5.04767C4.97822 4.79193 4.91813 4.81731 4.86738 4.86806C4.81663 4.91881 4.79125 4.97891 4.79125 5.04835V12.5804C4.79125 12.6498 4.81663 12.7099 4.86738 12.7606C4.91813 12.8114 4.97822 12.8368 5.04767 12.8368Z" fill="#757575"/>
</svg>
