<svg width="32" height="32" viewBox="0 0 32 32" fill="none" xmlns="http://www.w3.org/2000/svg">
<rect width="32" height="32" rx="4" fill="#F5F5F5"/>
<path d="M23.5834 11.7565V20.2436C23.5834 20.609 23.4539 20.9237 23.1948 21.1875C22.9358 21.4514 22.6187 21.5834 22.2436 21.5834H9.7565C9.39111 21.5834 9.07647 21.4514 8.81258 21.1875C8.54869 20.9237 8.41675 20.609 8.41675 20.2436V11.7565C8.41675 11.3911 8.54869 11.0765 8.81258 10.8126C9.07647 10.5487 9.39111 10.4167 9.7565 10.4167H22.2436C22.6187 10.4167 22.9358 10.5487 23.1948 10.8126C23.4539 11.0765 23.5834 11.3911 23.5834 11.7565ZM9.50006 13.3366H22.5001V11.7565C22.5001 11.6924 22.4734 11.6336 22.4199 11.5802C22.3665 11.5268 22.3077 11.5001 22.2436 11.5001H9.7565C9.69239 11.5001 9.63362 11.5268 9.58019 11.5802C9.52677 11.6336 9.50006 11.6924 9.50006 11.7565V13.3366ZM9.50006 15.6635V20.2436C9.50006 20.3077 9.52677 20.3665 9.58019 20.4199C9.63362 20.4734 9.69239 20.5001 9.7565 20.5001H22.2436C22.3077 20.5001 22.3665 20.4734 22.4199 20.4199C22.4734 20.3665 22.5001 20.3077 22.5001 20.2436V15.6635H9.50006Z" fill="#757575"/>
</svg>
