<svg width="20" height="20" viewBox="0 0 20 20" fill="none" xmlns="http://www.w3.org/2000/svg">
<path d="M9.45842 10.4198H10.5417V6.99994H9.45842V10.4198ZM10.0105 12.8188C10.1665 12.8188 10.302 12.7627 10.4171 12.6505C10.5322 12.5384 10.5898 12.3993 10.5898 12.2335C10.5898 12.0676 10.5333 11.9272 10.4202 11.812C10.3072 11.6969 10.1672 11.6394 10.0001 11.6394C9.85102 11.6394 9.71547 11.6955 9.59341 11.8077C9.47136 11.9198 9.41033 12.0589 9.41033 12.2247C9.41033 12.3906 9.47136 12.5311 9.59341 12.6462C9.71547 12.7613 9.85449 12.8188 10.0105 12.8188ZM4.41675 15.4038V14.3205H5.2565V8.93583C5.2565 7.75956 5.62669 6.73045 6.36706 5.8485C7.10745 4.96656 8.05457 4.43318 9.20842 4.24836V3.20829C9.20842 2.98839 9.28529 2.80147 9.43904 2.64754C9.59279 2.4936 9.77948 2.41663 9.99912 2.41663C10.2188 2.41663 10.4058 2.4936 10.5601 2.64754C10.7145 2.80147 10.7917 2.98839 10.7917 3.20829V4.24836C11.9456 4.43318 12.8927 4.96656 13.6331 5.8485C14.3734 6.73045 14.7436 7.75956 14.7436 8.93583V14.3205H15.5834V15.4038H4.41675ZM9.99423 17.7435C9.62419 17.7435 9.30936 17.6123 9.04975 17.35C8.79014 17.0876 8.66033 16.7722 8.66033 16.4038H11.3398C11.3398 16.7777 11.208 17.0945 10.9445 17.3541C10.681 17.6137 10.3643 17.7435 9.99423 17.7435ZM6.33979 14.3205H13.6603V8.93583C13.6603 7.91553 13.3054 7.05041 12.5954 6.34048C11.8855 5.63054 11.0204 5.27556 10.0001 5.27556C8.97975 5.27556 8.11464 5.63054 7.40471 6.34048C6.69476 7.05041 6.33979 7.91553 6.33979 8.93583V14.3205Z" fill="#757575"/>
</svg>
