<svg width="20" height="20" viewBox="0 0 20 20" fill="none" xmlns="http://www.w3.org/2000/svg">
<path d="M9.37504 13.9583H10.625V9.16669H9.37504V13.9583ZM10 7.74042C10.1907 7.74042 10.3506 7.67592 10.4796 7.54692C10.6086 7.41792 10.6731 7.25806 10.6731 7.06735C10.6731 6.87666 10.6086 6.71681 10.4796 6.58779C10.3506 6.45879 10.1907 6.39429 10 6.39429C9.80931 6.39429 9.64946 6.45879 9.52046 6.58779C9.39146 6.71681 9.32696 6.87666 9.32696 7.06735C9.32696 7.25806 9.39146 7.41792 9.52046 7.54692C9.64946 7.67592 9.80931 7.74042 10 7.74042ZM10.0014 17.9167C8.90647 17.9167 7.87728 17.7089 6.91383 17.2933C5.95037 16.8778 5.1123 16.3138 4.39962 15.6015C3.68693 14.8891 3.12271 14.0514 2.70698 13.0884C2.29124 12.1253 2.08337 11.0964 2.08337 10.0014C2.08337 8.90647 2.29115 7.87728 2.70671 6.91383C3.12226 5.95037 3.68622 5.11231 4.39858 4.39963C5.11096 3.68693 5.94866 3.12272 6.91169 2.70698C7.8747 2.29124 8.90368 2.08337 9.99862 2.08337C11.0936 2.08337 12.1228 2.29115 13.0862 2.70671C14.0497 3.12226 14.8877 3.68622 15.6004 4.39858C16.3131 5.11096 16.8773 5.94866 17.2931 6.91169C17.7088 7.8747 17.9167 8.90368 17.9167 9.99862C17.9167 11.0936 17.7089 12.1228 17.2933 13.0862C16.8778 14.0497 16.3138 14.8877 15.6015 15.6004C14.8891 16.3131 14.0514 16.8773 13.0884 17.2931C12.1253 17.7088 11.0964 17.9167 10.0014 17.9167ZM10 16.6667C11.8611 16.6667 13.4375 16.0209 14.7292 14.7292C16.0209 13.4375 16.6667 11.8611 16.6667 10C16.6667 8.13891 16.0209 6.56252 14.7292 5.27085C13.4375 3.97919 11.8611 3.33335 10 3.33335C8.13891 3.33335 6.56252 3.97919 5.27085 5.27085C3.97919 6.56252 3.33335 8.13891 3.33335 10C3.33335 11.8611 3.97919 13.4375 5.27085 14.7292C6.56252 16.0209 8.13891 16.6667 10 16.6667Z" fill="#757575"/>
</svg>
