<svg width="20" height="20" viewBox="0 0 20 20" fill="none" xmlns="http://www.w3.org/2000/svg">
<path d="M9.99746 17.5833C8.95924 17.5833 7.97922 17.3844 7.0574 16.9866C6.13558 16.5888 5.33056 16.0458 4.64233 15.3576C3.95412 14.6694 3.41113 13.8644 3.01335 12.9425C2.61558 12.0207 2.41669 11.0407 2.41669 10.0025C2.41669 8.95159 2.61584 7.96718 3.01415 7.04923C3.41244 6.1313 3.95459 5.32903 4.6406 4.64242C5.32663 3.95582 6.13112 3.41321 7.05406 3.01458C7.97702 2.61595 8.95687 2.41663 9.9936 2.41663C10.1611 2.41663 10.2943 2.46613 10.3932 2.56515C10.4922 2.66416 10.5416 2.79189 10.5416 2.94834C10.5416 3.10478 10.4922 3.23583 10.3932 3.34148C10.2943 3.44712 10.1632 3.49994 10 3.49994C8.19896 3.49994 6.66537 4.12841 5.39923 5.38536C4.13308 6.6423 3.5 8.17702 3.5 9.98952C3.5 11.802 4.13308 13.3402 5.39923 14.6041C6.66537 15.868 8.19896 16.4999 10 16.4999C11.8194 16.4999 13.3576 15.8669 14.6146 14.6007C15.8715 13.3346 16.5 11.801 16.5 9.99994C16.5 9.83648 16.5529 9.70534 16.6588 9.60652C16.7646 9.5077 16.8957 9.45829 17.0522 9.45829C17.2086 9.45829 17.3362 9.50777 17.4351 9.60673C17.5339 9.70568 17.5833 9.83888 17.5833 10.0063C17.5833 11.0431 17.384 12.0229 16.9854 12.9459C16.5867 13.8688 16.0441 14.6733 15.3575 15.3593C14.6709 16.0453 13.8686 16.5875 12.9507 16.9858C12.0328 17.3841 11.0483 17.5833 9.99746 17.5833Z" fill="#757575"/>
</svg>
