<svg width="20" height="20" viewBox="0 0 20 20" fill="none" xmlns="http://www.w3.org/2000/svg">
<path d="M10.0062 9.88751C10.3762 9.88751 10.691 9.75575 10.9506 9.49224C11.2103 9.22874 11.3401 8.91197 11.3401 8.54192C11.3401 8.1719 11.2083 7.85708 10.9448 7.59747C10.6813 7.33785 10.3645 7.20805 9.99449 7.20805C9.62445 7.20805 9.30963 7.3398 9.05002 7.6033C8.7904 7.86681 8.6606 8.18358 8.6606 8.55361C8.6606 8.92365 8.79235 9.23848 9.05585 9.49809C9.31936 9.7577 9.63613 9.88751 10.0062 9.88751ZM10.0003 16.1568C11.589 14.7668 12.8262 13.4121 13.7119 12.0927C14.5976 10.7732 15.0404 9.60974 15.0404 8.60226C15.0404 7.13859 14.5647 5.92091 13.6133 4.94922C12.6619 3.97752 11.4576 3.49167 10.0003 3.49167C8.54306 3.49167 7.33874 3.97752 6.38735 4.94922C5.43596 5.92091 4.96027 7.13859 4.96027 8.60226C4.96027 9.60974 5.40311 10.7732 6.28879 12.0927C7.17448 13.4121 8.41166 14.7668 10.0003 16.1568ZM10.0003 17.591C7.95902 15.8555 6.42813 14.2403 5.40766 12.7454C4.38719 11.2504 3.87695 9.86935 3.87695 8.60226C3.87695 6.90142 4.44693 5.44524 5.58689 4.23369C6.72684 3.02215 8.19451 2.41638 9.98991 2.41638C11.7853 2.41638 13.2565 3.02215 14.4033 4.23369C15.5503 5.44524 16.1237 6.90142 16.1237 8.60226C16.1237 9.86935 15.617 11.2473 14.6037 12.7361C13.5903 14.2248 12.0559 15.8431 10.0003 17.591Z" fill="#757575"/>
</svg>
