<svg width="20" height="20" viewBox="0 0 20 20" fill="none" xmlns="http://www.w3.org/2000/svg">
<path d="M5.75058 17.5833C5.3806 17.5833 5.0658 17.4524 4.80619 17.1907C4.54656 16.929 4.41675 16.6133 4.41675 16.2435V8.75642C4.41675 8.38665 4.5476 8.07092 4.80931 7.80923C5.071 7.54752 5.38673 7.41667 5.7565 7.41667H6.41675V5.41667C6.41675 4.42219 6.76581 3.57636 7.46394 2.87917C8.16205 2.18197 9.00899 1.83337 10.0048 1.83337C11.0005 1.83337 11.8459 2.18197 12.5409 2.87917C13.2359 3.57636 13.5834 4.42219 13.5834 5.41667V7.41667H14.2436C14.6134 7.41667 14.9291 7.54752 15.1908 7.80923C15.4525 8.07092 15.5834 8.38665 15.5834 8.75642V16.2435C15.5834 16.6133 15.4524 16.929 15.1906 17.1907C14.9287 17.4524 14.6128 17.5833 14.2428 17.5833H5.75058ZM5.7565 16.5H14.2436C14.3184 16.5 14.3799 16.4759 14.4279 16.4279C14.476 16.3798 14.5001 16.3183 14.5001 16.2435V8.75642C14.5001 8.68162 14.476 8.62019 14.4279 8.5721C14.3799 8.52402 14.3184 8.49998 14.2436 8.49998H5.7565C5.68171 8.49998 5.62027 8.52402 5.57219 8.5721C5.5241 8.62019 5.50006 8.68162 5.50006 8.75642V16.2435C5.50006 16.3183 5.5241 16.3798 5.57219 16.4279C5.62027 16.4759 5.68171 16.5 5.7565 16.5ZM10.0045 13.7916C10.3648 13.7916 10.6694 13.6657 10.9183 13.4138C11.1672 13.1619 11.2917 12.8559 11.2917 12.4956C11.2917 12.1353 11.1658 11.8306 10.9139 11.5817C10.662 11.3328 10.3559 11.2083 9.99564 11.2083C9.63534 11.2083 9.33073 11.3343 9.08181 11.5861C8.83288 11.838 8.70842 12.1441 8.70842 12.5044C8.70842 12.8647 8.83435 13.1693 9.08623 13.4182C9.3381 13.6672 9.64419 13.7916 10.0045 13.7916ZM7.50006 7.41667H12.5001V5.41667C12.5001 4.72222 12.257 4.13194 11.7709 3.64583C11.2848 3.15972 10.6945 2.91667 10.0001 2.91667C9.30562 2.91667 8.71534 3.15972 8.22923 3.64583C7.74312 4.13194 7.50006 4.72222 7.50006 5.41667V7.41667Z" fill="#757575"/>
</svg>
