<svg width="20" height="20" viewBox="0 0 20 20" fill="none" xmlns="http://www.w3.org/2000/svg">
<path d="M9.99204 16.5833V15.5H15.2436C15.3077 15.5 15.3665 15.4733 15.4199 15.4199C15.4734 15.3664 15.5001 15.3077 15.5001 15.2436V4.75644C15.5001 4.69233 15.4734 4.63356 15.4199 4.58013C15.3665 4.52671 15.3077 4.5 15.2436 4.5H9.99204V3.41669H15.2436C15.6187 3.41669 15.9358 3.5462 16.1948 3.80523C16.4539 4.06426 16.5834 4.38133 16.5834 4.75644V15.2436C16.5834 15.6187 16.4539 15.9357 16.1948 16.1948C15.9358 16.4538 15.6187 16.5833 15.2436 16.5833H9.99204ZM9.02894 12.891L8.24691 12.133L9.83825 10.5416H3.41675V9.45835H9.83825L8.24691 7.867L9.02894 7.10902L11.9199 10L9.02894 12.891Z" fill="#757575"/>
</svg>
