<svg width="20" height="20" viewBox="0 0 20 20" fill="none" xmlns="http://www.w3.org/2000/svg">
<path d="M4.7565 16.5833C4.38139 16.5833 4.06432 16.4538 3.80529 16.1948C3.54626 15.9357 3.41675 15.6187 3.41675 15.2436V4.75644C3.41675 4.38133 3.54626 4.06426 3.80529 3.80523C4.06432 3.5462 4.38139 3.41669 4.7565 3.41669H10.0081V4.5H4.7565C4.69239 4.5 4.63362 4.52671 4.58019 4.58013C4.52677 4.63356 4.50006 4.69233 4.50006 4.75644V15.2436C4.50006 15.3077 4.52677 15.3664 4.58019 15.4199C4.63362 15.4733 4.69239 15.5 4.7565 15.5H10.0081V16.5833H4.7565ZM13.6924 12.891L12.9104 12.133L14.5017 10.5416H8.08019V9.45835H14.5017L12.9104 7.867L13.6924 7.10902L16.5834 10L13.6924 12.891Z" fill="#757575"/>
</svg>
