<svg width="20" height="20" viewBox="0 0 20 20" fill="none" xmlns="http://www.w3.org/2000/svg">
<path d="M16.7836 9.43592V15.4444C16.7836 15.8216 16.6541 16.1404 16.3951 16.4009C16.136 16.6614 15.819 16.7917 15.4439 16.7917H4.54002C4.16492 16.7917 3.84786 16.6597 3.58883 16.3958C3.3298 16.132 3.20029 15.8173 3.20029 15.4519V9.39906C2.72593 9.09563 2.43239 8.70327 2.31969 8.22198C2.20696 7.74067 2.21044 7.23827 2.3301 6.71477L3.25637 4.12823C3.32582 3.80559 3.47619 3.57162 3.7075 3.42631C3.9388 3.28102 4.23006 3.20837 4.58127 3.20837H15.3866C15.7378 3.20837 16.0269 3.27274 16.254 3.40148C16.481 3.53022 16.6335 3.76712 16.7115 4.11221L17.6538 6.71477C17.7734 7.23827 17.7734 7.74601 17.6538 8.238C17.5341 8.72999 17.2441 9.12929 16.7836 9.43592ZM11.8253 8.70837C12.1971 8.70837 12.501 8.60046 12.7371 8.38464C12.9733 8.16884 13.0774 7.92205 13.0496 7.64427L12.5016 4.29167H10.6169V7.49212C10.6169 7.83393 10.7355 8.12209 10.9727 8.3566C11.2099 8.59112 11.4941 8.70837 11.8253 8.70837ZM8.14819 8.70837C8.49702 8.70837 8.78736 8.59112 9.01921 8.3566C9.25104 8.12209 9.36696 7.83393 9.36696 7.49212V4.29167H7.48231L6.93423 7.67631C6.91714 7.9167 7.02399 8.14881 7.25475 8.37262C7.48553 8.59646 7.78334 8.70837 8.14819 8.70837ZM4.49194 8.70837C4.8007 8.70837 5.0662 8.61462 5.28844 8.42712C5.51066 8.23961 5.641 8.00376 5.67946 7.71958L6.23235 4.29167H4.5881C4.49728 4.29167 4.42517 4.3117 4.37175 4.35177C4.31832 4.39184 4.27825 4.45194 4.25154 4.53208L3.3461 7.1186C3.20827 7.51819 3.25661 7.88304 3.49112 8.21317C3.72564 8.54331 4.05924 8.70837 4.49194 8.70837ZM15.4919 8.70837C15.8872 8.70837 16.215 8.54865 16.4751 8.22921C16.7353 7.90975 16.7964 7.53955 16.6586 7.1186L15.7324 4.51604C15.7056 4.43592 15.6656 4.37849 15.6121 4.34375C15.5587 4.30903 15.4866 4.29167 15.3958 4.29167H13.7515L14.3044 7.71958C14.3429 8.00376 14.4767 8.23961 14.7059 8.42712C14.935 8.61462 15.1971 8.70837 15.4919 8.70837ZM4.54002 15.7084H15.4439C15.5187 15.7084 15.5801 15.6843 15.6282 15.6362C15.6762 15.5882 15.7003 15.5267 15.7003 15.4519V9.75962C15.6789 9.76496 15.6482 9.77163 15.6081 9.77965C15.5681 9.78766 15.5293 9.79167 15.4919 9.79167C15.1447 9.79167 14.8149 9.72035 14.5024 9.57773C14.1899 9.4351 13.9139 9.21421 13.6746 8.91506C13.4407 9.20352 13.1684 9.42174 12.8578 9.56971C12.5472 9.71768 12.1924 9.79167 11.7932 9.79167C11.4649 9.79167 11.1553 9.71821 10.8643 9.57131C10.5733 9.42441 10.2825 9.20566 9.99194 8.91506C9.73446 9.20566 9.43932 9.42441 9.10652 9.57131C8.77373 9.71821 8.44707 9.79167 8.12656 9.79167C7.80605 9.79167 7.49168 9.73398 7.18346 9.6186C6.87522 9.50321 6.58916 9.2687 6.32527 8.91506C5.96073 9.27317 5.62387 9.50881 5.31469 9.62196C5.00551 9.7351 4.73126 9.79167 4.49194 9.79167C4.45455 9.79167 4.41849 9.78766 4.38377 9.77965C4.34903 9.77163 4.31564 9.76496 4.2836 9.75962V15.4519C4.2836 15.5267 4.30764 15.5882 4.35571 15.6362C4.40379 15.6843 4.46523 15.7084 4.54002 15.7084ZM15.4439 15.7084H4.48748H15.4934H15.4439Z" fill="#757575"/>
</svg>
