<svg width="20" height="20" viewBox="0 0 20 20" fill="none" xmlns="http://www.w3.org/2000/svg">
<path d="M3.02674 17V12.2761H4.139V15.8835H7.73259V17H3.02674ZM12.2674 17V15.8835H15.861V12.2761H16.9733V17H12.2674ZM5.89304 12.7864L5.10655 11.9969L6.53973 10.5583H2V9.44174H6.53973L5.10655 8.00306L5.89304 7.21356L8.66883 10L5.89304 12.7864ZM14.107 12.7864L11.3312 10L14.107 7.21356L14.8934 8.00306L13.4603 9.44174H18V10.5583H13.4603L14.8934 11.9969L14.107 12.7864ZM3.02674 7.7239V3H7.73259V4.11653H4.139V7.7239H3.02674ZM15.861 7.7239V4.11653H12.2674V3H16.9733V7.7239H15.861Z" fill="#757575"/>
</svg>
