<svg width="16" height="16" viewBox="0 0 16 16" fill="none" xmlns="http://www.w3.org/2000/svg">
<path d="M5.0625 11.7115L8 8.77396L10.9375 11.7115L11.7115 10.9374L8.77402 7.99994L11.7115 5.06244L10.9375 4.28842L8 7.22592L5.0625 4.28842L4.28848 5.06244L7.22598 7.99994L4.28848 10.9374L5.0625 11.7115ZM8.0014 15.5833C6.96201 15.5833 5.98142 15.3859 5.05965 14.9912C4.13785 14.5964 3.33103 14.0533 2.63919 13.3618C1.94733 12.6703 1.40394 11.8638 1.00904 10.9424C0.614139 10.0211 0.416687 9.04072 0.416687 8.00133C0.416687 6.94806 0.614048 5.964 1.00877 5.04917C1.40349 4.13432 1.94662 3.33097 2.63815 2.63913C3.32969 1.94727 4.13614 1.40388 5.0575 1.00898C5.97885 0.614078 6.95922 0.416626 7.9986 0.416626C9.05188 0.416626 10.0359 0.613988 10.9508 1.00871C11.8656 1.40343 12.669 1.94656 13.3608 2.63808C14.0527 3.32963 14.5961 4.13261 14.991 5.04702C15.3859 5.96143 15.5833 6.94527 15.5833 7.99854C15.5833 9.03793 15.386 10.0185 14.9912 10.9403C14.5965 11.8621 14.0534 12.6689 13.3619 13.3608C12.6703 14.0526 11.8673 14.596 10.9529 14.9909C10.0385 15.3858 9.05467 15.5833 8.0014 15.5833ZM8 14.4999C9.80556 14.4999 11.3403 13.868 12.6042 12.6041C13.8681 11.3402 14.5 9.80549 14.5 7.99994C14.5 6.19438 13.8681 4.65966 12.6042 3.39577C11.3403 2.13188 9.80556 1.49994 8 1.49994C6.19444 1.49994 4.65972 2.13188 3.39583 3.39577C2.13194 4.65966 1.5 6.19438 1.5 7.99994C1.5 9.80549 2.13194 11.3402 3.39583 12.6041C4.65972 13.868 6.19444 14.4999 8 14.4999Z" fill="#9A0000"/>
</svg>
