<svg width="10" height="13" viewBox="0 0 10 13" fill="none" xmlns="http://www.w3.org/2000/svg">
<path d="M4.99644 12.6179C4.69539 12.6179 4.43674 12.5143 4.22049 12.3071C4.00426 12.0999 3.88545 11.8462 3.86408 11.5462H6.13588C6.1145 11.8496 5.99451 12.104 5.77593 12.3096C5.55733 12.5152 5.2975 12.6179 4.99644 12.6179ZM2.76666 10.4897V9.62307H7.23329V10.4897H2.76666ZM2.45254 8.56665C1.83204 8.16579 1.35705 7.64016 1.02756 6.98973C0.69807 6.33931 0.533325 5.64273 0.533325 4.9C0.533325 3.65642 0.96687 2.60108 1.83396 1.73398C2.70106 0.866894 3.7564 0.43335 4.99998 0.43335C6.24355 0.43335 7.29889 0.866894 8.16599 1.73398C9.03308 2.60108 9.46663 3.65642 9.46663 4.9C9.46663 5.64273 9.30188 6.33931 8.97239 6.98973C8.6429 7.64016 8.16791 8.16579 7.54741 8.56665H2.45254ZM2.73331 7.7H7.26664C7.68886 7.35556 8.01664 6.93889 8.24998 6.45C8.48331 5.96111 8.59998 5.44444 8.59998 4.9C8.59998 3.89637 8.25126 3.04546 7.55383 2.34727C6.85639 1.64909 6.00639 1.3 5.00383 1.3C4.00126 1.3 3.14998 1.64909 2.44998 2.34727C1.74998 3.04546 1.39998 3.89637 1.39998 4.9C1.39998 5.44444 1.51664 5.96111 1.74998 6.45C1.98331 6.93889 2.31109 7.35556 2.73331 7.7Z" fill="#174665"/>
</svg>
