<svg width="16" height="16" viewBox="0 0 16 16" fill="none" xmlns="http://www.w3.org/2000/svg">
<path d="M7.9956 11.7756C8.16146 11.7756 8.30195 11.7195 8.41706 11.6073C8.53217 11.4951 8.58973 11.3561 8.58973 11.1902C8.58973 11.0244 8.53363 10.8839 8.42144 10.7688C8.30926 10.6537 8.17024 10.5961 8.0044 10.5961C7.83853 10.5961 7.69805 10.6522 7.58294 10.7644C7.46783 10.8766 7.41027 11.0156 7.41027 11.1814C7.41027 11.3473 7.46637 11.4878 7.57856 11.6029C7.69074 11.718 7.82976 11.7756 7.9956 11.7756ZM7.45835 9.06404H8.54165V4.06404H7.45835V9.06404ZM8.00714 15.5833C6.96392 15.5833 5.98142 15.3859 5.05965 14.9912C4.13785 14.5964 3.33103 14.0533 2.63919 13.3618C1.94733 12.6703 1.40394 11.8641 1.00904 10.9433C0.614139 10.0225 0.416687 9.0387 0.416687 7.99179C0.416687 6.94488 0.614048 5.964 1.00877 5.04917C1.40349 4.13432 1.94662 3.33097 2.63815 2.63913C3.32969 1.94727 4.13585 1.40388 5.05662 1.00898C5.9774 0.614078 6.96124 0.416626 8.00815 0.416626C9.05506 0.416626 10.0359 0.613988 10.9508 1.00871C11.8656 1.40343 12.669 1.94656 13.3608 2.63808C14.0527 3.32963 14.5961 4.13416 14.991 5.05169C15.3859 5.96922 15.5833 6.94959 15.5833 7.99279C15.5833 9.03602 15.386 10.0185 14.9912 10.9403C14.5965 11.8621 14.0534 12.6689 13.3619 13.3608C12.6703 14.0526 11.8658 14.596 10.9482 14.9909C10.0307 15.3858 9.05035 15.5833 8.00714 15.5833ZM8 14.4999C9.80556 14.4999 11.3403 13.868 12.6042 12.6041C13.8681 11.3402 14.5 9.80549 14.5 7.99994C14.5 6.19438 13.8681 4.65966 12.6042 3.39577C11.3403 2.13188 9.80556 1.49994 8 1.49994C6.19444 1.49994 4.65972 2.13188 3.39583 3.39577C2.13194 4.65966 1.5 6.19438 1.5 7.99994C1.5 9.80549 2.13194 11.3402 3.39583 12.6041C4.65972 13.868 6.19444 14.4999 8 14.4999Z" fill="#806313"/>
</svg>
