<svg width="20" height="20" viewBox="0 0 20 20" fill="none" xmlns="http://www.w3.org/2000/svg">
<path d="M5.68825 11.0833C5.38913 11.0833 5.13453 10.9767 4.92446 10.7637C4.7144 10.5507 4.60938 10.2946 4.60938 9.99552C4.60938 9.6964 4.71588 9.4418 4.9289 9.23173C5.14191 9.02166 5.39798 8.91663 5.6971 8.91663C5.99623 8.91663 6.25082 9.02313 6.46088 9.23615C6.67094 9.44916 6.77598 9.70523 6.77598 10.0044C6.77598 10.3035 6.66947 10.5581 6.45646 10.7681C6.24344 10.9782 5.98738 11.0833 5.68825 11.0833ZM9.99594 11.0833C9.69681 11.0833 9.44222 10.9767 9.23215 10.7637C9.02208 10.5507 8.91704 10.2946 8.91704 9.99552C8.91704 9.6964 9.02355 9.4418 9.23656 9.23173C9.44958 9.02166 9.70565 8.91663 10.0048 8.91663C10.3039 8.91663 10.5585 9.02313 10.7686 9.23615C10.9786 9.44916 11.0837 9.70523 11.0837 10.0044C11.0837 10.3035 10.9772 10.5581 10.7641 10.7681C10.5511 10.9782 10.2951 11.0833 9.99594 11.0833ZM14.3036 11.0833C14.0045 11.0833 13.7499 10.9767 13.5398 10.7637C13.3298 10.5507 13.2247 10.2946 13.2247 9.99552C13.2247 9.6964 13.3312 9.4418 13.5443 9.23173C13.7573 9.02166 14.0133 8.91663 14.3125 8.91663C14.6116 8.91663 14.8662 9.02313 15.0763 9.23615C15.2863 9.44916 15.3913 9.70523 15.3913 10.0044C15.3913 10.3035 15.2848 10.5581 15.0718 10.7681C14.8588 10.9782 14.6027 11.0833 14.3036 11.0833Z" fill="#757575"/>
</svg>
