<svg width="20" height="20" viewBox="0 0 20 20" fill="none" xmlns="http://www.w3.org/2000/svg">
<path d="M9.99613 15.3907C9.69701 15.3907 9.44241 15.2842 9.23234 15.0712C9.02227 14.8582 8.91724 14.6021 8.91724 14.303C8.91724 14.0039 9.02374 13.7493 9.23676 13.5392C9.44977 13.3292 9.70584 13.2241 10.005 13.2241C10.3041 13.2241 10.5587 13.3306 10.7688 13.5436C10.9788 13.7567 11.0839 14.0127 11.0839 14.3118C11.0839 14.611 10.9774 14.8656 10.7643 15.0756C10.5513 15.2857 10.2953 15.3907 9.99613 15.3907ZM9.99613 11.0831C9.69701 11.0831 9.44241 10.9766 9.23234 10.7635C9.02227 10.5505 8.91724 10.2945 8.91724 9.99533C8.91724 9.6962 9.02374 9.44161 9.23676 9.23154C9.44977 9.02147 9.70584 8.91643 10.005 8.91643C10.3041 8.91643 10.5587 9.02294 10.7688 9.23595C10.9788 9.44897 11.0839 9.70504 11.0839 10.0042C11.0839 10.3033 10.9774 10.5579 10.7643 10.768C10.5513 10.978 10.2953 11.0831 9.99613 11.0831ZM9.99613 6.77537C9.69701 6.77537 9.44241 6.66886 9.23234 6.45585C9.02227 6.24283 8.91724 5.98676 8.91724 5.68764C8.91724 5.38851 9.02374 5.13392 9.23676 4.92385C9.44977 4.71379 9.70584 4.60876 10.005 4.60876C10.3041 4.60876 10.5587 4.71527 10.7688 4.92829C10.9788 5.1413 11.0839 5.39737 11.0839 5.69649C11.0839 5.99562 10.9774 6.25021 10.7643 6.46026C10.5513 6.67033 10.2953 6.77537 9.99613 6.77537Z" fill="#757575"/>
</svg>
