<svg width="20" height="20" viewBox="0 0 20 20" fill="none" xmlns="http://www.w3.org/2000/svg">
<path d="M3.7565 16.5833C3.38139 16.5833 3.06432 16.4538 2.80529 16.1947C2.54626 15.9357 2.41675 15.6187 2.41675 15.2435V6.75642C2.41675 6.38131 2.54626 6.06424 2.80529 5.80521C3.06432 5.54618 3.38139 5.41667 3.7565 5.41667H7.41675V4.16869C7.41675 3.79237 7.54644 3.47574 7.80583 3.21879C8.06522 2.96185 8.38272 2.83337 8.75833 2.83337H11.2491C11.6247 2.83337 11.941 2.96289 12.198 3.22192C12.4549 3.48094 12.5834 3.79801 12.5834 4.1731V5.41667H16.2436C16.6187 5.41667 16.9358 5.54618 17.1948 5.80521C17.4539 6.06424 17.5834 6.38131 17.5834 6.75642V15.2435C17.5834 15.6187 17.4539 15.9357 17.1948 16.1947C16.9358 16.4538 16.6187 16.5833 16.2436 16.5833H3.7565ZM3.7565 15.5H16.2436C16.3077 15.5 16.3665 15.4733 16.4199 15.4199C16.4734 15.3664 16.5001 15.3077 16.5001 15.2435V6.75642C16.5001 6.69231 16.4734 6.63353 16.4199 6.5801C16.3665 6.52669 16.3077 6.49998 16.2436 6.49998H3.7565C3.69239 6.49998 3.63362 6.52669 3.58019 6.5801C3.52677 6.63353 3.50006 6.69231 3.50006 6.75642V15.2435C3.50006 15.3077 3.52677 15.3664 3.58019 15.4199C3.63362 15.4733 3.69239 15.5 3.7565 15.5ZM8.50006 5.41667H11.5001V4.1731C11.5001 4.10899 11.4734 4.05023 11.4199 3.99681C11.3665 3.94338 11.3077 3.91667 11.2436 3.91667H8.7565C8.69239 3.91667 8.63362 3.94338 8.58019 3.99681C8.52677 4.05023 8.50006 4.10899 8.50006 4.1731V5.41667Z" fill="#757575"/>
</svg>
