<svg width="20" height="20" viewBox="0 0 20 20" fill="none" xmlns="http://www.w3.org/2000/svg">
<path d="M3.7565 17.5833C3.38139 17.5833 3.06432 17.4537 2.80529 17.1947C2.54626 16.9357 2.41675 16.6186 2.41675 16.2435V7.75638C2.41675 7.38127 2.54626 7.0642 2.80529 6.80517C3.06432 6.54614 3.38139 6.41663 3.7565 6.41663H8.41675V3.49994C8.41675 3.19963 8.52222 2.944 8.73316 2.73304C8.94412 2.5221 9.19976 2.41663 9.50006 2.41663H10.5001C10.8004 2.41663 11.056 2.5221 11.267 2.73304C11.4779 2.944 11.5834 3.19963 11.5834 3.49994V6.41663H16.2436C16.6187 6.41663 16.9358 6.54614 17.1948 6.80517C17.4539 7.0642 17.5834 7.38127 17.5834 7.75638V16.2435C17.5834 16.6186 17.4539 16.9357 17.1948 17.1947C16.9358 17.4537 16.6187 17.5833 16.2436 17.5833H3.7565ZM3.7565 16.4999H16.2436C16.3184 16.4999 16.3799 16.4759 16.4279 16.4278C16.476 16.3797 16.5001 16.3183 16.5001 16.2435V7.75638C16.5001 7.68159 16.476 7.62015 16.4279 7.57206C16.3799 7.52398 16.3184 7.49994 16.2436 7.49994H11.5834V7.82048C11.5834 8.11962 11.4766 8.37495 11.2629 8.58648C11.0493 8.79801 10.795 8.90377 10.5001 8.90377H9.50006C9.20509 8.90377 8.9508 8.79697 8.73719 8.58336C8.52356 8.36975 8.41675 8.11545 8.41675 7.82048V7.49994H3.7565C3.68171 7.49994 3.62027 7.52398 3.57219 7.57206C3.5241 7.62015 3.50006 7.68159 3.50006 7.75638V16.2435C3.50006 16.3183 3.5241 16.3797 3.57219 16.4278C3.62027 16.4759 3.68171 16.4999 3.7565 16.4999ZM5.12827 14.7595H9.87185V14.4086C9.87185 14.1851 9.81255 13.9796 9.69396 13.7921C9.57537 13.6047 9.41138 13.4586 9.20198 13.3541C8.92955 13.2483 8.65364 13.1655 8.37425 13.1057C8.09487 13.0459 7.80348 13.016 7.50006 13.016C7.19664 13.016 6.90525 13.0459 6.62587 13.1057C6.34648 13.1655 6.07057 13.2516 5.79814 13.3639C5.58874 13.4578 5.42475 13.5991 5.30616 13.7879C5.18757 13.9767 5.12827 14.1836 5.12827 14.4086V14.7595ZM12.0001 13.7435H15.0001V12.4999H12.0001V13.7435ZM7.50006 12.4999C7.80988 12.4999 8.0743 12.3904 8.29333 12.1714C8.51235 11.9524 8.62185 11.688 8.62185 11.3781C8.62185 11.0683 8.51235 10.8039 8.29333 10.5849C8.0743 10.3659 7.80988 10.2564 7.50006 10.2564C7.19024 10.2564 6.92582 10.3659 6.70679 10.5849C6.48778 10.8039 6.37827 11.0683 6.37827 11.3781C6.37827 11.688 6.48778 11.9524 6.70679 12.1714C6.92582 12.3904 7.19024 12.4999 7.50006 12.4999ZM12.0001 11.4999H15.0001V10.2564H12.0001V11.4999ZM9.50006 7.82048H10.5001V3.49994H9.50006V7.82048Z" fill="#757575"/>
</svg>
