<svg width="20" height="20" viewBox="0 0 20 20" fill="none" xmlns="http://www.w3.org/2000/svg">
<path d="M4.7565 16.5833C4.38139 16.5833 4.06432 16.4538 3.80529 16.1948C3.54626 15.9357 3.41675 15.6187 3.41675 15.2436V4.75644C3.41675 4.38133 3.54626 4.06426 3.80529 3.80523C4.06432 3.5462 4.38139 3.41669 4.7565 3.41669H9.67952V4.5H4.7565C4.69239 4.5 4.63362 4.52671 4.58019 4.58013C4.52677 4.63356 4.50006 4.69233 4.50006 4.75644V15.2436C4.50006 15.3077 4.52677 15.3664 4.58019 15.4199C4.63362 15.4733 4.69239 15.5 4.7565 15.5H15.2436C15.3077 15.5 15.3665 15.4733 15.4199 15.4199C15.4734 15.3664 15.5001 15.3077 15.5001 15.2436V10.3205H16.5834V15.2436C16.5834 15.6187 16.4539 15.9357 16.1948 16.1948C15.9358 16.4538 15.6187 16.5833 15.2436 16.5833H4.7565ZM8.07858 12.6955L7.30456 11.9215L14.726 4.5H12.0001V3.41669H16.5834V8H15.5001V5.27402L8.07858 12.6955Z" fill="#757575"/>
</svg>
