<svg width="20" height="20" viewBox="0 0 20 20" fill="none" xmlns="http://www.w3.org/2000/svg">
<path d="M4.41675 15.4038V14.3205H5.2565V8.9359C5.2565 7.75962 5.62669 6.73051 6.36706 5.84856C7.10745 4.96662 8.05457 4.43324 9.20842 4.24842V3.20835C9.20842 2.98845 9.28529 2.80154 9.43904 2.6476C9.59279 2.49366 9.77948 2.41669 9.99912 2.41669C10.2188 2.41669 10.4058 2.49366 10.5601 2.6476C10.7145 2.80154 10.7917 2.98845 10.7917 3.20835V4.24842C11.9456 4.43324 12.8927 4.96662 13.6331 5.84856C14.3734 6.73051 14.7436 7.75962 14.7436 8.9359V14.3205H15.5834V15.4038H4.41675ZM9.99423 17.7436C9.62419 17.7436 9.30936 17.6124 9.04975 17.35C8.79014 17.0877 8.66033 16.7723 8.66033 16.4038H11.3398C11.3398 16.7778 11.208 17.0945 10.9445 17.3541C10.681 17.6138 10.3643 17.7436 9.99423 17.7436ZM6.33979 14.3205H13.6603V8.9359C13.6603 7.91559 13.3054 7.05047 12.5954 6.34054C11.8855 5.6306 11.0204 5.27562 10.0001 5.27562C8.97975 5.27562 8.11464 5.6306 7.40471 6.34054C6.69476 7.05047 6.33979 7.91559 6.33979 8.9359V14.3205Z" fill="#757575"/>
<circle cx="14.5833" cy="7.08333" r="3.08333" fill="#D96666" stroke="#1C1B1B" stroke-width="2"/>
</svg>
