<svg width="20" height="20" viewBox="0 0 20 20" fill="none" xmlns="http://www.w3.org/2000/svg">
<path d="M10.2404 16.4968C10.3365 16.4968 10.4306 16.4776 10.5225 16.4391C10.6143 16.4006 10.6918 16.3499 10.7548 16.2869L16.9824 10.0385C17.1426 9.87821 17.2703 9.70514 17.3654 9.51923C17.4605 9.33334 17.508 9.13155 17.508 8.91386C17.508 8.68879 17.4605 8.47193 17.3654 8.2633C17.2703 8.05464 17.1426 7.86752 16.9824 7.70192L13.3157 4.01444C13.1362 3.85418 12.953 3.73051 12.766 3.64344C12.5789 3.55636 12.376 3.51282 12.1571 3.51282C11.8526 3.51282 11.5817 3.59802 11.3446 3.76844C11.1074 3.93884 10.8835 4.13196 10.6731 4.34777L10.4247 4.59617L11.9872 6.08817C12.188 6.29436 12.3504 6.52219 12.4743 6.77165C12.5983 7.02112 12.6602 7.28955 12.6602 7.57694C12.6602 8.05771 12.4938 8.46448 12.1611 8.79727C11.8283 9.13007 11.4223 9.29646 10.9432 9.29646C10.7115 9.29646 10.4871 9.25586 10.2698 9.17467C10.0526 9.09348 9.85472 8.96367 9.67631 8.78525L7.95195 7.05288L4.7468 10.258C4.68378 10.3349 4.63303 10.4175 4.59458 10.5057C4.5561 10.594 4.53687 10.6851 4.53687 10.779C4.53687 10.9563 4.5979 11.1028 4.71997 11.2188C4.84203 11.3347 4.99155 11.3926 5.16855 11.3926C5.2624 11.3926 5.35179 11.3734 5.43672 11.335C5.52167 11.2965 5.6026 11.2457 5.67951 11.1827L8.06253 8.82053L8.81572 9.57371L6.4247 11.9567C6.34777 12.0336 6.29355 12.1158 6.26203 12.2032C6.23051 12.2906 6.21474 12.3808 6.21474 12.4738C6.21474 12.6439 6.27587 12.7906 6.39814 12.9141C6.52039 13.0376 6.66899 13.0994 6.84395 13.0994C6.93945 13.0994 7.03315 13.0801 7.12503 13.0417C7.21691 13.0032 7.29437 12.9525 7.35741 12.8894L9.83658 10.4023L10.6106 11.1763L8.12341 13.6346C8.05183 13.7115 7.99894 13.7977 7.96474 13.893C7.93056 13.9884 7.91347 14.0824 7.91347 14.1751C7.91347 14.3444 7.9746 14.4906 8.09685 14.6136C8.2191 14.7366 8.36771 14.7981 8.54268 14.7981C8.63817 14.7981 8.73185 14.7789 8.82374 14.7404C8.91562 14.7019 8.99308 14.6512 9.05612 14.5882L11.5353 12.101L12.3093 12.875L9.83014 15.3333C9.7671 15.4102 9.71635 15.4968 9.67789 15.5929C9.63943 15.689 9.6202 15.7829 9.6202 15.8744C9.6202 16.0575 9.68083 16.207 9.80208 16.3229C9.92334 16.4388 10.0694 16.4968 10.2404 16.4968ZM10.2276 17.5384C9.75642 17.5384 9.35605 17.375 9.02645 17.048C8.69687 16.7211 8.53101 16.321 8.52887 15.8477C8.07053 15.8435 7.67951 15.6827 7.35581 15.3654C7.03208 15.0481 6.85687 14.6487 6.83016 14.1672C6.33658 14.1369 5.9306 13.9653 5.61222 13.6522C5.29385 13.3392 5.13786 12.9455 5.14426 12.4711C4.66243 12.4808 4.26019 12.3218 3.93753 11.9944C3.6149 11.6669 3.45358 11.2618 3.45358 10.7789C3.45358 10.5428 3.49684 10.3139 3.58337 10.0922C3.66991 9.87048 3.80239 9.67042 3.9808 9.492L7.95195 5.53369L10.4135 7.99521C10.4904 8.0668 10.5686 8.11968 10.6482 8.15388C10.7278 8.18806 10.8186 8.20515 10.9204 8.20515C11.0921 8.20515 11.2396 8.14452 11.363 8.02325C11.4864 7.90199 11.5481 7.75123 11.5481 7.57098C11.5481 7.47009 11.5275 7.37589 11.4864 7.28836C11.4453 7.20083 11.3959 7.12555 11.3382 7.0625L8.29008 4.01444C8.11059 3.84029 7.92488 3.71315 7.73295 3.63302C7.54101 3.55289 7.33435 3.51282 7.11299 3.51282C6.89878 3.51282 6.70006 3.55636 6.51683 3.64344C6.3336 3.73051 6.15492 3.85418 5.98076 4.01444L2.98903 6.99952C2.82648 7.16116 2.70033 7.35577 2.6106 7.58334C2.52085 7.81091 2.48131 8.04595 2.49199 8.28846C2.50269 8.41027 2.52459 8.52325 2.5577 8.62742C2.59083 8.73159 2.62822 8.83923 2.66989 8.95034L1.8542 9.74519C1.71626 9.54754 1.61153 9.32452 1.54001 9.07613C1.46849 8.82773 1.42738 8.56517 1.4167 8.28846C1.40602 7.89103 1.46826 7.51363 1.60341 7.15625C1.73855 6.79889 1.94661 6.48666 2.2276 6.21957L5.20676 3.24042C5.46317 2.97867 5.75403 2.77808 6.07935 2.63865C6.40467 2.49923 6.75535 2.42952 7.13141 2.42952C7.50748 2.42952 7.85684 2.49923 8.17949 2.63865C8.50213 2.77808 8.79433 2.97867 9.05608 3.24042L9.63783 3.82217L10.2196 3.21959C10.476 2.95784 10.7655 2.75725 11.0882 2.61782C11.4108 2.4784 11.7602 2.40869 12.1362 2.40869C12.5123 2.40869 12.8595 2.4784 13.1779 2.61782C13.4963 2.75725 13.7863 2.95784 14.0481 3.21959L17.7356 6.90707C17.9973 7.16882 18.2019 7.46555 18.3493 7.79727C18.4968 8.12901 18.5705 8.48291 18.5705 8.85898C18.5705 9.23504 18.4968 9.58439 18.3493 9.90705C18.2019 10.2297 17.9973 10.5219 17.7356 10.7836L11.508 17.0192C11.3242 17.203 11.124 17.3354 10.9073 17.4167C10.6906 17.4978 10.464 17.5384 10.2276 17.5384Z" fill="#757575"/>
</svg>
