<svg width="20" height="20" viewBox="0 0 20 20" fill="none" xmlns="http://www.w3.org/2000/svg">
<path d="M15.4712 16.5625C13.9562 16.4375 12.5 16.0376 11.1026 15.363C9.70518 14.6883 8.43997 13.7831 7.30697 12.6474C6.17395 11.5117 5.27705 10.25 4.61626 8.86219C3.95547 7.47437 3.55563 6.02299 3.41674 4.50804C3.38896 4.21408 3.47428 3.9587 3.6727 3.7419C3.87111 3.52509 4.11913 3.41669 4.41674 3.41669H6.59299C6.84513 3.41669 7.06201 3.49228 7.24363 3.64346C7.42526 3.79464 7.55186 3.99202 7.62343 4.2356L8.05932 5.97917C8.09245 6.16507 8.08203 6.34669 8.02807 6.52404C7.97413 6.70139 7.88625 6.84562 7.76445 6.95673L5.83978 8.83013C6.14961 9.41132 6.4931 9.95833 6.87024 10.4711C7.24738 10.984 7.66062 11.4636 8.10997 11.9099C8.55379 12.3535 9.03318 12.7644 9.54813 13.1426C10.0631 13.5209 10.6192 13.8649 11.2164 14.1747L13.1908 12.2468C13.3072 12.125 13.4408 12.0438 13.5914 12.0032C13.742 11.9626 13.9103 11.9562 14.0962 11.984L15.7644 12.351C16.0166 12.4204 16.2161 12.5486 16.363 12.7356C16.5099 12.9226 16.5834 13.1448 16.5834 13.4023V15.5625C16.5834 15.8601 16.4715 16.1081 16.2477 16.3065C16.024 16.5049 15.7651 16.5903 15.4712 16.5625ZM5.35261 7.77246L6.92313 6.26604C6.94984 6.24467 6.9672 6.21528 6.97522 6.1779C6.98323 6.14049 6.9819 6.10577 6.97122 6.07373L6.6057 4.62821C6.59502 4.58547 6.57632 4.55342 6.54961 4.53206C6.52289 4.51069 6.48816 4.5 6.44543 4.5H4.64588C4.61384 4.5 4.58713 4.51069 4.56576 4.53206C4.54438 4.55342 4.5337 4.58013 4.5337 4.61219C4.57643 5.13997 4.66965 5.66641 4.81334 6.19152C4.95705 6.71663 5.13681 7.24361 5.35261 7.77246ZM12.3109 14.6827C12.8091 14.9019 13.33 15.0683 13.8737 15.182C14.4173 15.2957 14.9221 15.3793 15.3879 15.4327C15.4199 15.4327 15.4466 15.422 15.468 15.4006C15.4894 15.3793 15.5001 15.3526 15.5001 15.3205V13.5256C15.5001 13.4829 15.4894 13.4482 15.468 13.4215C15.4466 13.3948 15.4146 13.3761 15.3718 13.3654L14.0177 13.0721C13.9856 13.0614 13.9576 13.0601 13.9335 13.0681C13.9095 13.0761 13.8841 13.0935 13.8574 13.1202L12.3109 14.6827Z" fill="#757575"/>
</svg>
