<svg width="20" height="20" viewBox="0 0 20 20" fill="none" xmlns="http://www.w3.org/2000/svg">
<path d="M5.7565 18.5833C5.38139 18.5833 5.06432 18.4538 4.80529 18.1948C4.54626 17.9357 4.41675 17.6187 4.41675 17.2436V2.75644C4.41675 2.38133 4.54626 2.06426 4.80529 1.80523C5.06432 1.5462 5.38139 1.41669 5.7565 1.41669H14.2436C14.6187 1.41669 14.9358 1.5462 15.1948 1.80523C15.4539 2.06426 15.5834 2.38133 15.5834 2.75644V17.2436C15.5834 17.6187 15.4539 17.9357 15.1948 18.1948C14.9358 18.4538 14.6187 18.5833 14.2436 18.5833H5.7565ZM5.50006 16.2916V17.2436C5.50006 17.3077 5.52677 17.3664 5.58019 17.4199C5.63362 17.4733 5.69239 17.5 5.7565 17.5H14.2436C14.3077 17.5 14.3665 17.4733 14.4199 17.4199C14.4734 17.3664 14.5001 17.3077 14.5001 17.2436V16.2916H5.50006ZM5.50006 15.2084H14.5001V4.79165H5.50006V15.2084ZM5.50006 3.70835H14.5001V2.75644C14.5001 2.69233 14.4734 2.63356 14.4199 2.58013C14.3665 2.52671 14.3077 2.5 14.2436 2.5H5.7565C5.69239 2.5 5.63362 2.52671 5.58019 2.58013C5.52677 2.63356 5.50006 2.69233 5.50006 2.75644V3.70835Z" fill="#757575"/>
</svg>
