<svg width="20" height="20" viewBox="0 0 20 20" fill="none" xmlns="http://www.w3.org/2000/svg">
<path d="M6.20501 6.79485C5.7874 6.79485 5.43143 6.64735 5.1371 6.35235C4.84275 6.05735 4.69558 5.70272 4.69558 5.28845V3.91026C4.69558 3.49601 4.84308 3.14138 5.1381 2.84637C5.4331 2.55137 5.78773 2.40387 6.20199 2.40387H13.7951C14.2127 2.40387 14.5686 2.55137 14.863 2.84637C15.1573 3.14138 15.3045 3.49601 15.3045 3.91026V5.28845C15.3045 5.70272 15.157 6.05735 14.862 6.35235C14.567 6.64735 14.2123 6.79485 13.7981 6.79485H6.20501ZM6.20199 5.54489H13.7981C13.8782 5.54489 13.941 5.52218 13.9864 5.47676C14.0318 5.43136 14.0545 5.36859 14.0545 5.28845V3.91026C14.0545 3.83014 14.0318 3.76737 13.9864 3.72195C13.941 3.67655 13.8782 3.65385 13.7981 3.65385H6.20199C6.12185 3.65385 6.05908 3.67655 6.01366 3.72195C5.96826 3.76737 5.94556 3.83014 5.94556 3.91026V5.28845C5.94556 5.36859 5.96826 5.43136 6.01366 5.47676C6.05908 5.52218 6.12185 5.54489 6.20199 5.54489ZM3.91033 17.5961C3.49608 17.5961 3.14144 17.4486 2.84643 17.1536C2.55143 16.8586 2.40393 16.5039 2.40393 16.0897V15.2563H17.5961V16.0897C17.5961 16.5053 17.4486 16.8602 17.1536 17.1546C16.8586 17.4489 16.504 17.5961 16.0897 17.5961H3.91033ZM2.40393 14.5192L4.98578 8.52243C5.10962 8.24143 5.29771 8.02214 5.55006 7.86456C5.80239 7.70697 6.07365 7.62818 6.36385 7.62818H13.6362C13.9264 7.62818 14.1977 7.70697 14.45 7.86456C14.7024 8.02214 14.8905 8.24143 15.0143 8.52243L17.5961 14.5192H2.40393ZM7.17953 13.0128H8.01287C8.11116 13.0128 8.19716 12.9759 8.27087 12.9022C8.34459 12.8285 8.38145 12.7425 8.38145 12.6442C8.38145 12.5459 8.34459 12.4599 8.27087 12.3862C8.19716 12.3125 8.11116 12.2756 8.01287 12.2756H7.17953C7.08124 12.2756 6.99524 12.3125 6.92151 12.3862C6.84781 12.4599 6.81095 12.5459 6.81095 12.6442C6.81095 12.7425 6.84781 12.8285 6.92151 12.9022C6.99524 12.9759 7.08124 13.0128 7.17953 13.0128ZM7.17953 11.4423H8.01287C8.11116 11.4423 8.19716 11.4054 8.27087 11.3317C8.34459 11.258 8.38145 11.172 8.38145 11.0737C8.38145 10.9754 8.34459 10.8894 8.27087 10.8157C8.19716 10.742 8.11116 10.7051 8.01287 10.7051H7.17953C7.08124 10.7051 6.99524 10.742 6.92151 10.8157C6.84781 10.8894 6.81095 10.9754 6.81095 11.0737C6.81095 11.172 6.84781 11.258 6.92151 11.3317C6.99524 11.4054 7.08124 11.4423 7.17953 11.4423ZM7.17953 9.87177H8.01287C8.11116 9.87177 8.19716 9.8349 8.27087 9.76118C8.34459 9.68746 8.38145 9.60146 8.38145 9.50318C8.38145 9.40489 8.34459 9.31888 8.27087 9.24516C8.19716 9.17144 8.11116 9.13458 8.01287 9.13458H7.17953C7.08124 9.13458 6.99524 9.17144 6.92151 9.24516C6.84781 9.31888 6.81095 9.40489 6.81095 9.50318C6.81095 9.60146 6.84781 9.68746 6.92151 9.76118C6.99524 9.8349 7.08124 9.87177 7.17953 9.87177ZM9.58337 13.0128H10.4167C10.515 13.0128 10.601 12.9759 10.6747 12.9022C10.7484 12.8285 10.7853 12.7425 10.7853 12.6442C10.7853 12.5459 10.7484 12.4599 10.6747 12.3862C10.601 12.3125 10.515 12.2756 10.4167 12.2756H9.58337C9.48508 12.2756 9.39908 12.3125 9.32537 12.3862C9.25165 12.4599 9.21479 12.5459 9.21479 12.6442C9.21479 12.7425 9.25165 12.8285 9.32537 12.9022C9.39908 12.9759 9.48508 13.0128 9.58337 13.0128ZM9.58337 11.4423H10.4167C10.515 11.4423 10.601 11.4054 10.6747 11.3317C10.7484 11.258 10.7853 11.172 10.7853 11.0737C10.7853 10.9754 10.7484 10.8894 10.6747 10.8157C10.601 10.742 10.515 10.7051 10.4167 10.7051H9.58337C9.48508 10.7051 9.39908 10.742 9.32537 10.8157C9.25165 10.8894 9.21479 10.9754 9.21479 11.0737C9.21479 11.172 9.25165 11.258 9.32537 11.3317C9.39908 11.4054 9.48508 11.4423 9.58337 11.4423ZM9.58337 9.87177H10.4167C10.515 9.87177 10.601 9.8349 10.6747 9.76118C10.7484 9.68746 10.7853 9.60146 10.7853 9.50318C10.7853 9.40489 10.7484 9.31888 10.6747 9.24516C10.601 9.17144 10.515 9.13458 10.4167 9.13458H9.58337C9.48508 9.13458 9.39908 9.17144 9.32537 9.24516C9.25165 9.31888 9.21479 9.40489 9.21479 9.50318C9.21479 9.60146 9.25165 9.68746 9.32537 9.76118C9.39908 9.8349 9.48508 9.87177 9.58337 9.87177ZM11.9872 13.0128H12.8205C12.9188 13.0128 13.0048 12.9759 13.0786 12.9022C13.1523 12.8285 13.1891 12.7425 13.1891 12.6442C13.1891 12.5459 13.1523 12.4599 13.0786 12.3862C13.0048 12.3125 12.9188 12.2756 12.8205 12.2756H11.9872C11.8889 12.2756 11.8029 12.3125 11.7292 12.3862C11.6555 12.4599 11.6186 12.5459 11.6186 12.6442C11.6186 12.7425 11.6555 12.8285 11.7292 12.9022C11.8029 12.9759 11.8889 13.0128 11.9872 13.0128ZM11.9872 11.4423H12.8205C12.9188 11.4423 13.0048 11.4054 13.0786 11.3317C13.1523 11.258 13.1891 11.172 13.1891 11.0737C13.1891 10.9754 13.1523 10.8894 13.0786 10.8157C13.0048 10.742 12.9188 10.7051 12.8205 10.7051H11.9872C11.8889 10.7051 11.8029 10.742 11.7292 10.8157C11.6555 10.8894 11.6186 10.9754 11.6186 11.0737C11.6186 11.172 11.6555 11.258 11.7292 11.3317C11.8029 11.4054 11.8889 11.4423 11.9872 11.4423ZM11.9872 9.87177H12.8205C12.9188 9.87177 13.0048 9.8349 13.0786 9.76118C13.1523 9.68746 13.1891 9.60146 13.1891 9.50318C13.1891 9.40489 13.1523 9.31888 13.0786 9.24516C13.0048 9.17144 12.9188 9.13458 12.8205 9.13458H11.9872C11.8889 9.13458 11.8029 9.17144 11.7292 9.24516C11.6555 9.31888 11.6186 9.40489 11.6186 9.50318C11.6186 9.60146 11.6555 9.68746 11.7292 9.76118C11.8029 9.8349 11.8889 9.87177 11.9872 9.87177Z" fill="#757575"/>
</svg>
