<svg width="20" height="20" viewBox="0 0 20 20" fill="none" xmlns="http://www.w3.org/2000/svg">
<path d="M6.20841 11.7916H9.66514C9.76877 11.5939 9.88602 11.4062 10.0169 11.2283C10.1478 11.0504 10.2853 10.8771 10.4295 10.7083H6.20841V11.7916ZM6.20841 14.7916H9.19237C9.16166 14.611 9.14116 14.4305 9.13087 14.2499C9.12059 14.0694 9.124 13.8888 9.1411 13.7083H6.20841V14.7916ZM4.7565 17.5833C4.38139 17.5833 4.06432 17.4537 3.80529 17.1947C3.54626 16.9357 3.41675 16.6186 3.41675 16.2435V3.75638C3.41675 3.38127 3.54626 3.0642 3.80529 2.80517C4.06432 2.54614 4.38139 2.41663 4.7565 2.41663H11.2084L14.5834 5.79159V9.11213C14.3975 9.08863 14.2142 9.08061 14.0337 9.08809C13.8532 9.09557 13.6753 9.11587 13.5001 9.14898V6.58325H10.4167V3.49994H4.7565C4.69239 3.49994 4.63362 3.52665 4.58019 3.58006C4.52677 3.63349 4.50006 3.69227 4.50006 3.75638V16.2435C4.50006 16.3076 4.52677 16.3664 4.58019 16.4198C4.63362 16.4732 4.69239 16.4999 4.7565 16.4999H9.81898C9.92688 16.7061 10.0545 16.9003 10.202 17.0825C10.3494 17.2646 10.5139 17.4315 10.6956 17.5833H4.7565ZM13.9954 16.1281C14.5915 16.1281 15.096 15.9233 15.5089 15.5135C15.9218 15.1037 16.1283 14.6007 16.1283 14.0046C16.1283 13.4085 15.9229 12.904 15.5122 12.4911C15.1015 12.0782 14.5975 11.8717 14.0001 11.8717C13.5182 11.8717 13.0431 12.0504 12.5746 12.4078C12.1061 12.7652 11.8719 13.2959 11.8719 13.9999C11.8719 14.5973 12.0767 15.1014 12.4865 15.5121C12.8963 15.9228 13.3993 16.1281 13.9954 16.1281ZM17.9376 18.7034L15.8638 16.6089C15.5967 16.8001 15.3059 16.9484 14.9914 17.0536C14.6769 17.1588 14.3499 17.2115 14.0105 17.2115C13.1114 17.2115 12.3497 16.8992 11.7252 16.2748C11.1008 15.6503 10.7885 14.892 10.7885 13.9999C10.7885 13.1079 11.1008 12.3496 11.7252 11.7251C12.3497 11.1006 13.108 10.7884 14.0001 10.7884C14.8921 10.7884 15.6504 11.1006 16.2749 11.7251C16.8994 12.3496 17.2116 13.1079 17.2116 13.9999C17.2116 14.3418 17.159 14.6711 17.0537 14.9879C16.9485 15.3047 16.8003 15.5966 16.609 15.8637L18.7036 17.9374L17.9376 18.7034Z" fill="#757575"/>
</svg>
