<svg width="20" height="20" viewBox="0 0 20 20" fill="none" xmlns="http://www.w3.org/2000/svg">
<path d="M13.5 7.25641V4.75641H6.5V7.25641H5.41669V3.6731H14.5833V7.25641H13.5ZM14.5854 10.3397C14.7966 10.3397 14.9751 10.2682 15.121 10.1253C15.2668 9.98243 15.3397 9.80535 15.3397 9.5941C15.3397 9.38283 15.2683 9.20428 15.1254 9.05845C14.9825 8.91262 14.8054 8.8397 14.5941 8.8397C14.3829 8.8397 14.2043 8.91116 14.0585 9.05407C13.9126 9.19698 13.8397 9.37406 13.8397 9.58532C13.8397 9.79657 13.9112 9.97512 14.0541 10.121C14.197 10.2668 14.3741 10.3397 14.5854 10.3397ZM13.5 15.5V12.2756H6.5V15.5H13.5ZM14.5833 16.5833H5.41669V13.5833H2.6571V8.8397C2.6571 8.40221 2.81015 8.02896 3.11623 7.71993C3.42231 7.41091 3.79704 7.25641 4.2404 7.25641H15.7596C16.1971 7.25641 16.5703 7.41091 16.8794 7.71993C17.1884 8.02896 17.3429 8.40221 17.3429 8.8397V13.5833H14.5833V16.5833ZM16.2804 12.5V9.1382C16.2804 8.91142 16.1971 8.72164 16.0304 8.56887C15.8638 8.41609 15.6693 8.3397 15.4471 8.3397H4.53206C4.30776 8.3397 4.11974 8.41637 3.968 8.5697C3.81626 8.72303 3.7404 8.91303 3.7404 9.1397V12.5H5.41669V11.1923H14.5833V12.5H16.2804Z" fill="#757575"/>
</svg>
