<svg width="20" height="20" viewBox="0 0 20 20" fill="none" xmlns="http://www.w3.org/2000/svg">
<path d="M10.0048 13.5833C11.0005 13.5833 11.8459 13.2343 12.5409 12.5361C13.2359 11.838 13.5834 10.9911 13.5834 9.99529C13.5834 8.99951 13.2343 8.15413 12.5362 7.45915C11.8381 6.76417 10.9911 6.41669 9.99535 6.41669C8.99957 6.41669 8.15419 6.76575 7.45921 7.46387C6.76423 8.16199 6.41675 9.00893 6.41675 10.0047C6.41675 11.0005 6.76581 11.8459 7.46394 12.5409C8.16205 13.2358 9.00899 13.5833 10.0048 13.5833ZM10.0072 17.5833C8.96398 17.5833 7.98148 17.386 7.05971 16.9912C6.13791 16.5965 5.3311 16.0534 4.63925 15.3619C3.94739 14.6703 3.40401 13.8642 3.0091 12.9434C2.6142 12.0226 2.41675 11.0388 2.41675 9.99185C2.41675 8.94494 2.61411 7.96406 3.00883 7.04923C3.40355 6.13438 3.94668 5.33104 4.63821 4.63919C5.32975 3.94733 6.13591 3.40394 7.05669 3.00904C7.97746 2.61414 8.9613 2.41669 10.0082 2.41669C11.0551 2.41669 12.036 2.61405 12.9508 3.00877C13.8657 3.40349 14.669 3.94662 15.3609 4.63815C16.0527 5.32969 16.5961 6.13422 16.991 7.05175C17.3859 7.96928 17.5834 8.94965 17.5834 9.99285C17.5834 11.0361 17.386 12.0186 16.9913 12.9404C16.5966 13.8621 16.0534 14.669 15.3619 15.3608C14.6704 16.0527 13.8658 16.5961 12.9483 16.991C12.0308 17.3859 11.0504 17.5833 10.0072 17.5833ZM10.0001 16.5C11.8056 16.5 13.3403 15.8681 14.6042 14.6042C15.8681 13.3403 16.5001 11.8056 16.5001 10C16.5001 8.19444 15.8681 6.65972 14.6042 5.39583C13.3403 4.13194 11.8056 3.5 10.0001 3.5C8.19451 3.5 6.65978 4.13194 5.39589 5.39583C4.132 6.65972 3.50006 8.19444 3.50006 10C3.50006 11.8056 4.132 13.3403 5.39589 14.6042C6.65978 15.8681 8.19451 16.5 10.0001 16.5Z" fill="#757575"/>
</svg>
