<svg width="20" height="20" viewBox="0 0 20 20" fill="none" xmlns="http://www.w3.org/2000/svg">
<path d="M3.41675 17.4872V2.51288L4.48727 3.226L5.58983 2.51288L6.69237 3.226L7.79494 2.51288L8.8975 3.226L10.0001 2.51288L11.1026 3.226L12.2052 2.51288L13.3077 3.226L14.4103 2.51288L15.5129 3.226L16.5834 2.51288V17.4872L15.5129 16.774L14.4103 17.4872L13.3077 16.774L12.2052 17.4872L11.1026 16.774L10.0001 17.4872L8.8975 16.774L7.79494 17.4872L6.69237 16.774L5.58983 17.4872L4.48727 16.774L3.41675 17.4872ZM6.20841 13.0353H13.7917V11.9519H6.20841V13.0353ZM6.20841 10.5417H13.7917V9.45838H6.20841V10.5417ZM6.20841 8.04811H13.7917V6.9648H6.20841V8.04811ZM4.50006 15.5H15.5001V4.50002H4.50006V15.5Z" fill="#757575"/>
</svg>
