<svg width="20" height="20" viewBox="0 0 20 20" fill="none" xmlns="http://www.w3.org/2000/svg">
<path d="M10.0316 15.5831C8.48121 15.5831 7.16307 15.0403 6.07714 13.9546C4.99121 12.8689 4.44824 11.5511 4.44824 10.0011C4.44824 8.4511 4.99121 7.13284 6.07714 6.04632C7.16307 4.95978 8.48121 4.4165 10.0316 4.4165C10.9504 4.4165 11.7925 4.62271 12.558 5.03511C13.3235 5.4475 13.96 5.99291 14.4674 6.67134V4.4165H15.5507V8.67928H11.288V7.59598H13.8088C13.4114 6.95816 12.8822 6.44934 12.2215 6.06953C11.5607 5.68972 10.8307 5.49982 10.0316 5.49982C8.78156 5.49982 7.71905 5.93732 6.84405 6.81232C5.96905 7.68732 5.53155 8.74982 5.53155 9.99982C5.53155 11.2498 5.96905 12.3123 6.84405 13.1873C7.71905 14.0623 8.78156 14.4998 10.0316 14.4998C11.1982 14.4998 12.1982 14.1144 13.0316 13.3436C13.8649 12.5727 14.3441 11.6248 14.4691 10.4998H15.578C15.4637 11.9432 14.8785 13.1512 13.8224 14.124C12.7663 15.0968 11.5027 15.5831 10.0316 15.5831Z" fill="#757575"/>
</svg>
