<svg width="20" height="20" viewBox="0 0 20 20" fill="none" xmlns="http://www.w3.org/2000/svg">
<path d="M10.0001 17.7083C9.0866 17.7083 8.23071 17.5356 7.43239 17.1902C6.63407 16.8448 5.93792 16.3751 5.34394 15.7811C4.74996 15.1871 4.28028 14.491 3.93487 13.6926C3.58946 12.8943 3.41675 12.0384 3.41675 11.125H4.50006C4.50006 12.6389 5.03825 13.934 6.11464 15.0104C7.19103 16.0868 8.48617 16.625 10.0001 16.625C11.5139 16.625 12.8091 16.0868 13.8855 15.0104C14.9619 13.934 15.5001 12.6389 15.5001 11.125C15.5001 9.61108 14.9619 8.31594 13.8855 7.23955C12.8091 6.16317 11.5112 5.62497 9.99194 5.62497H9.77889L10.8735 6.71953L10.0994 7.47751L7.70525 5.0753L10.1155 2.6731L10.8895 3.4311L9.75806 4.54166H10.0001C10.9135 4.54166 11.7694 4.71437 12.5677 5.05978C13.366 5.40519 14.0622 5.87487 14.6562 6.46885C15.2502 7.06283 15.7198 7.75899 16.0652 8.5573C16.4107 9.35562 16.5834 10.2115 16.5834 11.125C16.5834 12.0384 16.4107 12.8943 16.0652 13.6926C15.7198 14.491 15.2502 15.1871 14.6562 15.7811C14.0622 16.3751 13.366 16.8448 12.5677 17.1902C11.7694 17.5356 10.9135 17.7083 10.0001 17.7083Z" fill="#757575"/>
</svg>
