<svg width="20" height="20" viewBox="0 0 20 20" fill="none" xmlns="http://www.w3.org/2000/svg">
<path d="M6.20841 10.5416H13.7917V9.45829H6.20841V10.5416ZM10.0072 17.5833C8.96398 17.5833 7.98148 17.3859 7.05971 16.9912C6.13791 16.5964 5.3311 16.0533 4.63925 15.3618C3.94739 14.6703 3.40401 13.8641 3.0091 12.9433C2.6142 12.0225 2.41675 11.0387 2.41675 9.99179C2.41675 8.94488 2.61411 7.964 3.00883 7.04917C3.40355 6.13432 3.94668 5.33097 4.63821 4.63913C5.32975 3.94727 6.13591 3.40388 7.05669 3.00898C7.97746 2.61408 8.9613 2.41663 10.0082 2.41663C11.0551 2.41663 12.036 2.61399 12.9508 3.00871C13.8657 3.40343 14.669 3.94656 15.3609 4.63808C16.0527 5.32963 16.5961 6.13416 16.991 7.05169C17.3859 7.96922 17.5834 8.94959 17.5834 9.99279C17.5834 11.036 17.386 12.0185 16.9913 12.9403C16.5966 13.8621 16.0534 14.6689 15.3619 15.3608C14.6704 16.0526 13.8658 16.596 12.9483 16.9909C12.0308 17.3858 11.0504 17.5833 10.0072 17.5833ZM10.0001 16.4999C11.8056 16.4999 13.3403 15.868 14.6042 14.6041C15.8681 13.3402 16.5001 11.8055 16.5001 9.99994C16.5001 8.19438 15.8681 6.65966 14.6042 5.39577C13.3403 4.13188 11.8056 3.49994 10.0001 3.49994C8.19451 3.49994 6.65978 4.13188 5.39589 5.39577C4.132 6.65966 3.50006 8.19438 3.50006 9.99994C3.50006 11.8055 4.132 13.3402 5.39589 14.6041C6.65978 15.868 8.19451 16.4999 10.0001 16.4999Z" fill="#757575"/>
</svg>
