<svg width="20" height="20" viewBox="0 0 20 20" fill="none" xmlns="http://www.w3.org/2000/svg">
<path d="M4.77248 15.7275V14.6443H6.45837L6.18594 14.3558C5.59833 13.8055 5.12183 13.1624 4.75644 12.4263C4.39106 11.6902 4.20837 10.8867 4.20837 10.016C4.20837 8.71476 4.59192 7.56226 5.359 6.55852C6.12608 5.55479 7.10364 4.86755 8.29167 4.49681V5.62659C7.41133 5.97809 6.69125 6.54566 6.13142 7.32932C5.57158 8.11298 5.29167 9.00855 5.29167 10.016C5.29167 10.7094 5.43243 11.3528 5.71396 11.9463C5.99547 12.5398 6.37608 13.0486 6.85577 13.4728L7.17631 13.7933V12.2404H8.25962V15.7275H4.77248ZM11.7084 15.5032V14.3734C12.5887 14.0219 13.3088 13.4543 13.8686 12.6707C14.4285 11.887 14.7084 10.9915 14.7084 9.98398C14.7084 9.29059 14.5676 8.64716 14.2861 8.05369C14.0046 7.4602 13.624 6.95138 13.1443 6.52723L12.8237 6.20669V7.75961H11.7404V4.27246H15.2276V5.35575H13.5417L13.8141 5.64425C14.4177 6.17843 14.8982 6.81759 15.2556 7.56171C15.613 8.30584 15.7917 9.11326 15.7917 9.98398C15.7917 11.2852 15.4081 12.4377 14.641 13.4415C13.874 14.4452 12.8964 15.1325 11.7084 15.5032Z" fill="#757575"/>
</svg>
