<svg width="20" height="20" viewBox="0 0 20 20" fill="none" xmlns="http://www.w3.org/2000/svg">
<path d="M9.45835 10.4198H10.5416V6.99994H9.45835V10.4198ZM10.0104 12.8188C10.1664 12.8188 10.302 12.7627 10.4171 12.6505C10.5322 12.5384 10.5897 12.3993 10.5897 12.2335C10.5897 12.0676 10.5332 11.9272 10.4202 11.812C10.3072 11.6969 10.1671 11.6394 10 11.6394C9.85096 11.6394 9.71541 11.6955 9.59335 11.8077C9.4713 11.9198 9.41027 12.0589 9.41027 12.2247C9.41027 12.3906 9.4713 12.5311 9.59335 12.6462C9.71541 12.7613 9.85443 12.8188 10.0104 12.8188ZM4.41669 15.4038V14.3205H5.25644V8.93583C5.25644 7.75956 5.62662 6.73045 6.367 5.8485C7.10739 4.96656 8.05451 4.43318 9.20835 4.24836V3.20829C9.20835 2.98839 9.28523 2.80147 9.43898 2.64754C9.59273 2.4936 9.77942 2.41663 9.99906 2.41663C10.2187 2.41663 10.4057 2.4936 10.5601 2.64754C10.7145 2.80147 10.7916 2.98839 10.7916 3.20829V4.24836C11.9455 4.43318 12.8926 4.96656 13.633 5.8485C14.3734 6.73045 14.7436 7.75956 14.7436 8.93583V14.3205H15.5833V15.4038H4.41669ZM9.99417 17.7435C9.62412 17.7435 9.3093 17.6123 9.04969 17.35C8.79008 17.0876 8.66027 16.7722 8.66027 16.4038H11.3397C11.3397 16.7777 11.208 17.0945 10.9445 17.3541C10.681 17.6137 10.3642 17.7435 9.99417 17.7435ZM6.33973 14.3205H13.6603V8.93583C13.6603 7.91553 13.3053 7.05041 12.5954 6.34048C11.8854 5.63054 11.0203 5.27556 10 5.27556C8.97969 5.27556 8.11458 5.63054 7.40465 6.34048C6.6947 7.05041 6.33973 7.91553 6.33973 8.93583V14.3205Z" fill="#757575"/>
</svg>
