<svg width="20" height="20" viewBox="0 0 20 20" fill="none" xmlns="http://www.w3.org/2000/svg">
<path d="M6.16835 15.5833V14.5H12.2325C12.9216 14.5 13.4998 14.2476 13.9672 13.7428C14.4346 13.238 14.6684 12.633 14.6684 11.9279C14.6684 11.2228 14.4346 10.6191 13.9672 10.117C13.4998 9.61484 12.9216 9.36377 12.2325 9.36377H6.50644L8.59621 11.4535L7.82219 12.2275L4.41675 8.82212L7.82219 5.41669L8.59621 6.19071L6.50644 8.28048H12.2325C13.2153 8.28048 14.0476 8.63865 14.7292 9.35498C15.4108 10.0713 15.7516 10.929 15.7516 11.9279C15.7516 12.9268 15.4108 13.7858 14.7292 14.5048C14.0476 15.2238 13.2153 15.5833 12.2325 15.5833H6.16835Z" fill="#757575"/>
</svg>
