<svg width="20" height="20" viewBox="0 0 20 20" fill="none" xmlns="http://www.w3.org/2000/svg">
<path d="M11.4218 17.6504C11.2301 17.8416 11.0014 17.9373 10.7356 17.9373C10.4698 17.9373 10.2413 17.8416 10.0501 17.6504L2.3658 9.96611C2.25897 9.85928 2.18525 9.74703 2.14464 9.62938C2.10404 9.51171 2.08374 9.38785 2.08374 9.2578V3.02863C2.08374 2.75834 2.17375 2.53319 2.35378 2.35317C2.5338 2.17314 2.75895 2.08313 3.02924 2.08313H9.25841C9.38232 2.08313 9.50755 2.10254 9.63409 2.14136C9.76062 2.18018 9.87737 2.24944 9.98434 2.34915L17.635 9.9998C17.8401 10.2049 17.944 10.4432 17.9467 10.7145C17.9493 10.9859 17.8508 11.2215 17.651 11.4212L11.4218 17.6504ZM10.7724 17.0046L17.0052 10.7674L9.26199 3.02863H3.02924V9.2578L10.7724 17.0046ZM5.19176 6.09432C5.44132 6.09432 5.65637 6.00302 5.83693 5.82042C6.01748 5.63782 6.10776 5.42175 6.10776 5.17219C6.10776 4.92264 6.0178 4.70758 5.83787 4.52703C5.65793 4.34648 5.44319 4.25621 5.19364 4.25621C4.93875 4.25621 4.72102 4.34617 4.54047 4.52609C4.35991 4.70602 4.26964 4.92076 4.26964 5.17032C4.26964 5.41987 4.3596 5.63626 4.53953 5.81948C4.71945 6.00271 4.93686 6.09432 5.19176 6.09432Z" fill="#757575"/>
</svg>
