<svg width="20" height="20" viewBox="0 0 20 20" fill="none" xmlns="http://www.w3.org/2000/svg">
<path d="M3.70841 15.5834C3.31739 15.5834 3.00435 15.4578 2.76931 15.2066C2.53427 14.9554 2.41675 14.6502 2.41675 14.2909V5.75058C2.41675 5.39128 2.54228 5.07914 2.79335 4.81419C3.04442 4.54923 3.36547 4.41675 3.7565 4.41675H7.83177L9.83177 6.41675H16.2645C16.6095 6.41675 16.8895 6.51985 17.1042 6.72604C17.3189 6.93223 17.4616 7.19024 17.5321 7.50006H9.40391L7.40391 5.50006H3.7565C3.68171 5.50006 3.62027 5.5241 3.57219 5.57219C3.5241 5.62027 3.50006 5.68171 3.50006 5.7565V14.2436C3.50006 14.3024 3.51476 14.3505 3.54414 14.3879C3.57352 14.4253 3.61225 14.4573 3.66033 14.484L5.22923 9.16033H19.2356L17.593 14.6731C17.4979 14.9445 17.3788 15.164 17.2356 15.3318C17.0925 15.4995 16.8687 15.5834 16.5642 15.5834H3.70841ZM4.78208 14.5001H16.4953L17.7966 10.2436H6.04171L4.78208 14.5001Z" fill="#757575"/>
</svg>
