<svg width="20" height="20" viewBox="0 0 20 20" fill="none" xmlns="http://www.w3.org/2000/svg">
<path d="M14.6342 16.864L17.2656 14.2614L16.5669 13.5627L14.6342 15.4617L13.8297 14.6492L13.131 15.3607L14.6342 16.864ZM5.32011 7.08352H14.679V6.13802H5.32011V7.08352ZM15.1917 18.7854C14.2087 18.7854 13.3701 18.4342 12.6757 17.7318C11.9814 17.0295 11.6342 16.1964 11.6342 15.2327C11.6342 14.2351 11.9813 13.3885 12.6755 12.6928C13.3697 11.9971 14.2119 11.6492 15.2021 11.6492C16.1782 11.6492 17.0156 11.9971 17.7143 12.6928C18.413 13.3885 18.7624 14.2351 18.7624 15.2327C18.7624 16.1964 18.413 17.0295 17.7143 17.7318C17.0156 18.4342 16.1747 18.7854 15.1917 18.7854ZM2.91626 17.8078V4.11881C2.91626 3.79109 3.03465 3.50883 3.27143 3.27204C3.50822 3.03526 3.79047 2.91687 4.1182 2.91687H15.8809C16.2087 2.91687 16.4909 3.03526 16.7277 3.27204C16.9645 3.50883 17.0829 3.79109 17.0829 4.11881V10.2902C16.9342 10.227 16.7816 10.1717 16.6252 10.1242C16.4688 10.0768 16.3062 10.0376 16.1374 10.0066V4.11881C16.1374 4.0547 16.1107 3.99593 16.0573 3.9425C16.0038 3.88908 15.9451 3.86237 15.8809 3.86237H4.1182C4.05409 3.86237 3.99532 3.88908 3.94188 3.9425C3.88847 3.99593 3.86176 4.0547 3.86176 4.11881V16.1332H10.0557C10.0884 16.3314 10.1346 16.5231 10.1942 16.7083C10.2539 16.8936 10.322 17.079 10.3986 17.2646L9.91143 17.7517L8.81368 16.7822L7.62778 17.8078L6.44188 16.7822L5.25601 17.8078L4.07011 16.7822L2.91626 17.8078ZM5.32011 13.8623H10.1471C10.1908 13.6935 10.2373 13.5303 10.2864 13.3728C10.3356 13.2152 10.4023 13.0632 10.4867 12.9168H5.32011V13.8623ZM5.32011 10.4729H12.8473C13.0834 10.3736 13.3214 10.2894 13.5612 10.2205C13.8011 10.1516 14.0481 10.0926 14.3024 10.0435V9.52743H5.32011V10.4729Z" fill="#757575"/>
</svg>
