<svg width="20" height="20" viewBox="0 0 20 20" fill="none" xmlns="http://www.w3.org/2000/svg">
<path d="M13.3334 9.07052C13.5374 9.07052 13.7113 8.99867 13.855 8.85498C13.9987 8.71129 14.0705 8.53741 14.0705 8.33335C14.0705 8.1293 13.9987 7.95542 13.855 7.81173C13.7113 7.66803 13.5374 7.59619 13.3334 7.59619C13.1293 7.59619 12.9554 7.66803 12.8117 7.81173C12.668 7.95542 12.5962 8.1293 12.5962 8.33335C12.5962 8.53741 12.668 8.71129 12.8117 8.85498C12.9554 8.99867 13.1293 9.07052 13.3334 9.07052ZM6.66669 7.29167H10.8334V6.04171H6.66669V7.29167ZM4.06254 17.0833C3.62237 15.5641 3.18247 14.0523 2.74283 12.5481C2.30319 11.0438 2.08337 9.50002 2.08337 7.91669C2.08337 6.75644 2.48776 5.77194 3.29652 4.96319C4.10527 4.15442 5.08977 3.75004 6.25002 3.75004H10.625C11.0064 3.24899 11.464 2.84594 11.9976 2.54092C12.5313 2.23589 13.1154 2.08337 13.75 2.08337C13.9797 2.08337 14.176 2.16484 14.3389 2.32777C14.5019 2.49069 14.5833 2.68699 14.5833 2.91669C14.5833 2.97331 14.5756 3.02994 14.5601 3.08656C14.5446 3.14317 14.5283 3.19552 14.5112 3.2436C14.4343 3.44447 14.3689 3.65013 14.3149 3.8606C14.2609 4.07108 14.2147 4.28369 14.1763 4.49844L16.3446 6.66671H17.9167V11.758L15.6426 12.5048L14.2708 17.0833H10.4167V15.4167H7.91667V17.0833H4.06254ZM5.00002 15.8334H6.66669V14.1667H11.6667V15.8334H13.3334L14.625 11.5417L16.6667 10.8542V7.91669H15.8334L12.9167 5.00002C12.9167 4.72224 12.934 4.45488 12.9688 4.19794C13.0035 3.94099 13.0609 3.68325 13.141 3.42471C12.7383 3.53582 12.3868 3.72946 12.0866 4.00562C11.7864 4.2818 11.5561 4.61327 11.3959 5.00002H6.25002C5.44446 5.00002 4.75696 5.28474 4.18752 5.85419C3.61808 6.42363 3.33335 7.11113 3.33335 7.91669C3.33335 9.2778 3.52085 10.6077 3.89585 11.9063C4.27085 13.2049 4.63891 14.5139 5.00002 15.8334Z" fill="#757575"/>
</svg>
