<svg width="20" height="20" viewBox="0 0 20 20" fill="none" xmlns="http://www.w3.org/2000/svg">
<path d="M15.889 16.6472L10.9259 11.684C10.5092 12.0003 10.0523 12.2452 9.55522 12.4188C9.05811 12.5924 8.54516 12.6792 8.01637 12.6792C6.71658 12.6792 5.6116 12.2243 4.70143 11.3144C3.79126 10.4044 3.33618 9.30001 3.33618 8.00108C3.33618 6.70214 3.79114 5.59727 4.70106 4.68648C5.61097 3.7757 6.7154 3.32031 8.01435 3.32031C9.31328 3.32031 10.4181 3.7754 11.3289 4.68556C12.2397 5.59573 12.6951 6.70071 12.6951 8.0005C12.6951 8.54532 12.6056 9.06628 12.4267 9.5634C12.2477 10.0605 12.0055 10.5094 11.6999 10.91L16.6631 15.8732L15.889 16.6472ZM8.01564 11.5959C9.01992 11.5959 9.87035 11.2476 10.5669 10.5511C11.2635 9.85448 11.6118 9.00405 11.6118 7.99977C11.6118 6.99549 11.2635 6.14506 10.5669 5.44848C9.87035 4.7519 9.01992 4.4036 8.01564 4.4036C7.01136 4.4036 6.16093 4.7519 5.46435 5.44848C4.76778 6.14506 4.41949 6.99549 4.41949 7.99977C4.41949 9.00405 4.76778 9.85448 5.46435 10.5511C6.16093 11.2476 7.01136 11.5959 8.01564 11.5959Z" fill="#757575"/>
</svg>
