<svg width="20" height="20" viewBox="0 0 20 20" fill="none" xmlns="http://www.w3.org/2000/svg">
<path d="M8.01495 17.9164L7.71847 15.4196C7.53685 15.331 7.32531 15.2193 7.08385 15.0847C6.84239 14.9501 6.63619 14.8197 6.46524 14.6937L4.15595 15.6664L2.17041 12.2289L4.14156 10.7338C4.13621 10.6237 4.12953 10.5027 4.12151 10.3708C4.1135 10.2388 4.10949 10.1178 4.10949 10.0078C4.10949 9.90309 4.1135 9.7861 4.12151 9.65682C4.12953 9.52754 4.13621 9.3972 4.14156 9.2658L2.17041 7.77061L4.15595 4.34917L6.45722 5.31392C6.6442 5.18251 6.85173 5.05082 7.07983 4.91888C7.30794 4.78692 7.51815 4.67394 7.71045 4.57992L8.01495 2.08313H11.986L12.2825 4.58794C12.4908 4.69264 12.6997 4.80562 12.9091 4.92688C13.1185 5.04814 13.3194 5.17716 13.5117 5.31392L15.845 4.34917L17.8306 7.77061L15.8482 9.28982C15.8643 9.41055 15.8736 9.53289 15.8763 9.65682C15.8789 9.78075 15.8803 9.89507 15.8803 9.99978C15.8803 10.0991 15.8776 10.2108 15.8723 10.3347C15.8669 10.4586 15.8616 10.589 15.8562 10.7258L17.8226 12.2289L15.837 15.6664L13.5117 14.6856C13.3194 14.8224 13.1159 14.9541 12.9011 15.0807C12.6864 15.2073 12.4802 15.3176 12.2825 15.4116L11.986 17.9164H8.01495ZM9.96843 12.5623C10.6757 12.5623 11.2796 12.312 11.7801 11.8115C12.2806 11.3109 12.5309 10.707 12.5309 9.99978C12.5309 9.29253 12.2806 8.68863 11.7801 8.18809C11.2796 7.68756 10.6757 7.4373 9.96843 7.4373C9.26653 7.4373 8.66397 7.68756 8.16076 8.18809C7.65757 8.68863 7.40597 9.29253 7.40597 9.99978C7.40597 10.707 7.65757 11.3109 8.16076 11.8115C8.66397 12.312 9.26653 12.5623 9.96843 12.5623ZM9.96843 11.2289C9.6351 11.2289 9.3469 11.1074 9.10385 10.8644C8.86079 10.6213 8.73926 10.3331 8.73926 9.99978C8.73926 9.66644 8.86079 9.37825 9.10385 9.13519C9.3469 8.89214 9.6351 8.77061 9.96843 8.77061C10.3018 8.77061 10.59 8.89214 10.833 9.13519C11.0761 9.37825 11.1976 9.66644 11.1976 9.99978C11.1976 10.3331 11.0761 10.6213 10.833 10.8644C10.59 11.1074 10.3018 11.2289 9.96843 11.2289ZM9.16716 16.5831H10.8258L11.0838 14.3924C11.4813 14.2813 11.8595 14.12 12.2184 13.9084C12.5774 13.6969 12.9204 13.4303 13.2473 13.1088L15.2761 13.9789L16.1175 12.6039L14.3306 11.2418C14.4001 11.0259 14.4473 10.8179 14.4725 10.6176C14.4975 10.4172 14.5101 10.2113 14.5101 9.99978C14.5101 9.81068 14.4975 9.62211 14.4725 9.43407C14.4473 9.24604 14.407 9.0329 14.3515 8.79465L16.1543 7.39561L15.313 6.02061L13.2601 6.90363C12.9674 6.60555 12.6263 6.34219 12.2369 6.11357C11.8474 5.88493 11.4674 5.72307 11.0966 5.62798L10.8338 3.41644H9.15914L8.90435 5.61996C8.5069 5.72039 8.12816 5.87424 7.76812 6.0815C7.40808 6.28877 7.0646 6.55587 6.73768 6.8828L4.70883 6.02061L3.86747 7.39561L5.62549 8.7578C5.56994 8.96933 5.52827 9.18193 5.50049 9.39561C5.47272 9.60929 5.45883 9.81335 5.45883 10.0078C5.45883 10.1969 5.47272 10.3921 5.50049 10.5935C5.52827 10.7949 5.56726 11.004 5.61747 11.2209L3.86747 12.6039L4.70883 13.9789L6.72966 13.1248C7.0459 13.4357 7.38404 13.6948 7.74408 13.902C8.10412 14.1093 8.4882 14.2685 8.89633 14.3796L9.16716 16.5831Z" fill="#757575"/>
</svg>
