<svg width="20" height="20" viewBox="0 0 20 20" fill="none" xmlns="http://www.w3.org/2000/svg">
<path d="M5.00006 17.5833C4.47337 17.5833 4.0778 17.4546 3.81337 17.1971C3.54896 16.9396 3.41675 16.5418 3.41675 16.0038V13.4167H5.41675V2.57697L6.5206 3.52888L7.64046 2.57697L8.76033 3.52888L9.88019 2.57697L11.0001 3.52888L12.1199 2.57697L13.2398 3.52888L14.3597 2.57697L15.4795 3.52888L16.5834 2.57697V15.75C16.5834 16.2906 16.4095 16.7313 16.0617 17.0721C15.714 17.4129 15.2768 17.5833 14.7501 17.5833H5.00006ZM14.7501 16.5C14.9723 16.5 15.1528 16.434 15.2917 16.3021C15.4306 16.1701 15.5001 15.9861 15.5001 15.75V4.50001H6.50006V13.4167H14.0001V15.75C14.0001 15.9861 14.0695 16.1701 14.2084 16.3021C14.3473 16.434 14.5278 16.5 14.7501 16.5ZM7.66033 7.29165V6.20836H11.8879V7.29165H7.66033ZM7.66033 9.79165V8.70836H11.8879V9.79165H7.66033ZM13.702 7.40384C13.5396 7.40384 13.39 7.3404 13.2533 7.21353C13.1165 7.08664 13.0481 6.9336 13.0481 6.7544C13.0481 6.5752 13.1165 6.42069 13.2533 6.29088C13.39 6.16108 13.5431 6.09617 13.7124 6.09617C13.8817 6.09617 14.0313 6.15961 14.1611 6.28649C14.2909 6.41338 14.3558 6.56642 14.3558 6.74561C14.3558 6.92482 14.292 7.07933 14.1642 7.20913C14.0365 7.33894 13.8824 7.40384 13.702 7.40384ZM13.702 9.90384C13.5396 9.90384 13.39 9.8404 13.2533 9.71353C13.1165 9.58664 13.0481 9.4336 13.0481 9.2544C13.0481 9.0752 13.1165 8.92069 13.2533 8.79088C13.39 8.66108 13.5431 8.59618 13.7124 8.59618C13.8817 8.59618 14.0313 8.65961 14.1611 8.78649C14.2909 8.91338 14.3558 9.06642 14.3558 9.24561C14.3558 9.42482 14.292 9.57933 14.1642 9.70913C14.0365 9.83894 13.8824 9.90384 13.702 9.90384ZM5.00006 16.5H12.9167V14.5H4.50006V16C4.50006 16.2361 4.52437 16.3785 4.57298 16.4271C4.62159 16.4757 4.76395 16.5 5.00006 16.5Z" fill="#757575"/>
</svg>
