<svg width="20" height="20" viewBox="0 0 20 20" fill="none" xmlns="http://www.w3.org/2000/svg">
<path d="M9.14589 14.5271L13.4616 10.2115L12.6411 9.39098L9.15391 12.8781L7.45037 11.1538L6.60104 11.9823L9.14589 14.5271ZM5.75058 17.5833C5.37525 17.5833 5.05911 17.4537 4.80216 17.1947C4.54522 16.9357 4.41675 16.6186 4.41675 16.2435V3.75638C4.41675 3.38127 4.54626 3.0642 4.80529 2.80517C5.06432 2.54614 5.38139 2.41663 5.7565 2.41663H12.2084L15.5834 5.79159V16.2435C15.5834 16.6186 15.4538 16.9357 15.1946 17.1947C14.9354 17.4537 14.6181 17.5833 14.2428 17.5833H5.75058ZM11.4167 6.58325V3.49994H5.7565C5.69239 3.49994 5.63362 3.52665 5.58019 3.58006C5.52677 3.63349 5.50006 3.69227 5.50006 3.75638V16.2435C5.50006 16.3076 5.52677 16.3664 5.58019 16.4198C5.63362 16.4732 5.69239 16.4999 5.7565 16.4999H14.2436C14.3077 16.4999 14.3665 16.4732 14.4199 16.4198C14.4734 16.3664 14.5001 16.3076 14.5001 16.2435V6.58325H11.4167Z" fill="#757575"/>
</svg>
