<svg width="20" height="20" viewBox="0 0 20 20" fill="none" xmlns="http://www.w3.org/2000/svg">
<path d="M9.3206 16.5834V15.5001H15.2436C15.3131 15.5001 15.3732 15.4787 15.4239 15.436C15.4747 15.3932 15.5001 15.3371 15.5001 15.2677V9.79327C15.5001 8.29757 14.9629 7.0329 13.8885 5.99925C12.8141 4.96561 11.5195 4.44879 10.0047 4.44879C8.48985 4.44879 7.19371 4.96561 6.11625 5.99925C5.03879 7.0329 4.50006 8.29759 4.50006 9.79331V14.3462H3.70841C3.35468 14.3462 3.05097 14.2193 2.79729 13.9655C2.5436 13.7116 2.41675 13.4021 2.41675 13.0369V11.5433C2.41675 11.2452 2.51103 10.9872 2.6996 10.7693C2.88817 10.5513 3.12722 10.4157 3.41675 10.3622L3.45523 9.33981C3.53748 8.50221 3.76263 7.72097 4.13069 6.99608C4.49874 6.27118 4.9771 5.64297 5.56577 5.11146C6.15445 4.57994 6.82985 4.16462 7.59198 3.86548C8.3541 3.56632 9.15671 3.41675 9.99981 3.41675C10.8429 3.41675 11.6456 3.56671 12.4078 3.86664C13.17 4.16658 13.8455 4.58324 14.4342 5.11664C15.023 5.65005 15.5027 6.27572 15.8734 6.99367C16.2442 7.71161 16.468 8.48939 16.5449 9.327L16.5834 10.3703C16.8537 10.429 17.0879 10.5543 17.2861 10.7461C17.4843 10.9378 17.5834 11.1785 17.5834 11.468V13.1619C17.5834 13.4514 17.4843 13.6921 17.2861 13.8839C17.0879 14.0756 16.8537 14.2009 16.5834 14.2597V15.2677C16.5834 15.6321 16.4525 15.9425 16.1908 16.1988C15.9291 16.4552 15.6134 16.5834 15.2436 16.5834H9.3206ZM7.91471 11.3077C7.73551 11.3077 7.58101 11.247 7.45121 11.1254C7.3214 11.0039 7.2565 10.8535 7.2565 10.6743C7.2565 10.4951 7.31994 10.3419 7.44681 10.2148C7.5737 10.0877 7.72674 10.0241 7.90594 10.0241C8.08514 10.0241 8.23965 10.0862 8.36946 10.2104C8.49926 10.3346 8.56416 10.4863 8.56416 10.6655C8.56416 10.8447 8.50073 10.9966 8.37385 11.121C8.24696 11.2455 8.09391 11.3077 7.91471 11.3077ZM12.0942 11.3077C11.915 11.3077 11.7605 11.247 11.6307 11.1254C11.5009 11.0039 11.436 10.8535 11.436 10.6743C11.436 10.4951 11.4994 10.3419 11.6263 10.2148C11.7532 10.0877 11.9062 10.0241 12.0854 10.0241C12.2646 10.0241 12.4191 10.0862 12.5489 10.2104C12.6787 10.3346 12.7436 10.4863 12.7436 10.6655C12.7436 10.8447 12.6802 10.9966 12.5533 11.121C12.4264 11.2455 12.2734 11.3077 12.0942 11.3077ZM5.80937 10.25C5.69505 9.01501 6.0605 7.95198 6.90573 7.06096C7.75094 6.16994 8.79627 5.72444 10.0417 5.72444C11.1005 5.72444 12.0233 6.07166 12.8101 6.7661C13.597 7.46053 14.0502 8.33446 14.1699 9.38787C13.0695 9.38787 12.066 9.09434 11.1595 8.50727C10.253 7.9202 9.55189 7.1459 9.05616 6.18437C8.8724 7.09569 8.49847 7.90765 7.93437 8.62025C7.37026 9.33285 6.66193 9.87611 5.80937 10.25Z" fill="#287AB1"/>
</svg>
