<svg width="20" height="20" viewBox="0 0 20 20" fill="none" xmlns="http://www.w3.org/2000/svg">
<path d="M10.0325 14.6794C10.2566 14.6794 10.4471 14.6007 10.6042 14.4434C10.7612 14.286 10.8397 14.0953 10.8397 13.8713C10.8397 13.6472 10.7611 13.4567 10.6037 13.2996C10.4464 13.1426 10.2557 13.064 10.0316 13.064C9.80755 13.064 9.617 13.1427 9.45996 13.3001C9.3029 13.4574 9.22437 13.6481 9.22437 13.8722C9.22437 14.0962 9.30305 14.2868 9.4604 14.4438C9.61774 14.6009 9.80844 14.6794 10.0325 14.6794ZM9.44231 11.7163H10.5945C10.6052 11.2505 10.6584 10.9193 10.754 10.7227C10.8496 10.5261 11.039 10.2879 11.3221 10.008C11.8135 9.53039 12.1463 9.13295 12.3205 8.81565C12.4946 8.49834 12.5817 8.15613 12.5817 7.789C12.5817 7.08563 12.3483 6.50103 11.8814 6.03521C11.4145 5.5694 10.8152 5.3365 10.0833 5.3365C9.47117 5.3365 8.92336 5.5013 8.43992 5.8309C7.95649 6.16048 7.6106 6.60465 7.40227 7.1634L8.45192 7.61371C8.60897 7.19811 8.82425 6.89737 9.09775 6.71148C9.37126 6.52558 9.68056 6.43263 10.0256 6.43263C10.4626 6.43263 10.8128 6.5571 11.0761 6.80604C11.3395 7.05497 11.4712 7.37602 11.4712 7.76919C11.4712 8.09397 11.3662 8.37735 11.1562 8.61934C10.9463 8.86132 10.7094 9.10572 10.4455 9.35252C10.0235 9.74888 9.75082 10.0974 9.62742 10.3982C9.50401 10.6989 9.44231 11.1383 9.44231 11.7163ZM10.0014 17.5833C8.96201 17.5833 7.98142 17.3859 7.05965 16.9912C6.13785 16.5964 5.33103 16.0533 4.63919 15.3618C3.94733 14.6703 3.40394 13.8638 3.00904 12.9424C2.61414 12.0211 2.41669 11.0407 2.41669 10.0013C2.41669 8.94806 2.61405 7.964 3.00877 7.04917C3.40349 6.13432 3.94662 5.33097 4.63815 4.63913C5.32969 3.94727 6.13614 3.40388 7.0575 3.00898C7.97885 2.61408 8.95922 2.41663 9.9986 2.41663C11.0519 2.41663 12.0359 2.61399 12.9508 3.00871C13.8656 3.40343 14.669 3.94656 15.3608 4.63808C16.0527 5.32963 16.5961 6.13261 16.991 7.04702C17.3859 7.96143 17.5833 8.94527 17.5833 9.99854C17.5833 11.0379 17.386 12.0185 16.9912 12.9403C16.5965 13.8621 16.0534 14.6689 15.3619 15.3608C14.6703 16.0526 13.8673 16.596 12.9529 16.9909C12.0385 17.3858 11.0547 17.5833 10.0014 17.5833ZM10 16.4999C11.8056 16.4999 13.3403 15.868 14.6042 14.6041C15.8681 13.3402 16.5 11.8055 16.5 9.99994C16.5 8.19438 15.8681 6.65966 14.6042 5.39577C13.3403 4.13188 11.8056 3.49994 10 3.49994C8.19444 3.49994 6.65972 4.13188 5.39583 5.39577C4.13194 6.65966 3.5 8.19438 3.5 9.99994C3.5 11.8055 4.13194 13.3402 5.39583 14.6041C6.65972 15.868 8.19444 16.4999 10 16.4999Z" fill="#757575"/>
</svg>
