<svg width="20" height="20" viewBox="0 0 20 20" fill="none" xmlns="http://www.w3.org/2000/svg">
<path d="M12.936 13.3974L13.71 12.6234L10.5417 9.45494V5H9.45842V9.91988L12.936 13.3974ZM10.0015 17.5833C8.95686 17.5833 7.97497 17.386 7.05579 16.9912C6.13661 16.5965 5.3311 16.0534 4.63925 15.3619C3.94739 14.6703 3.40401 13.8642 3.0091 12.9434C2.6142 12.0226 2.41675 11.0388 2.41675 9.99185C2.41675 8.94494 2.61411 7.96059 3.00883 7.03881C3.40355 6.11702 3.94668 5.31367 4.63821 4.62877C5.32975 3.94385 6.13591 3.40394 7.05669 3.00904C7.97746 2.61414 8.9613 2.41669 10.0082 2.41669C11.0551 2.41669 12.0395 2.61572 12.9614 3.01377C13.8833 3.41183 14.6852 3.95203 15.3671 4.6344C16.049 5.31677 16.5889 6.11919 16.9867 7.04167C17.3845 7.96413 17.5834 8.94977 17.5834 9.9986C17.5834 11.0432 17.386 12.0251 16.9913 12.9443C16.5966 13.8635 16.0569 14.669 15.3723 15.3608C14.6877 16.0527 13.8838 16.5961 12.9607 16.991C12.0375 17.3859 11.0511 17.5833 10.0015 17.5833ZM10.01 16.5C11.8083 16.5 13.3395 15.8646 14.6037 14.5938C15.868 13.3229 16.5001 11.7884 16.5001 9.99006C16.5001 8.19177 15.868 6.66052 14.6037 5.39631C13.3395 4.1321 11.8083 3.5 10.01 3.5C8.21171 3.5 6.67714 4.1321 5.40631 5.39631C4.13548 6.66052 3.50006 8.19177 3.50006 9.99006C3.50006 11.7884 4.13548 13.3229 5.40631 14.5938C6.67714 15.8646 8.21171 16.5 10.01 16.5Z" fill="#757575"/>
</svg>
