<svg width="20" height="20" viewBox="0 0 20 20" fill="none" xmlns="http://www.w3.org/2000/svg">
<path d="M9.44235 16.7917V15.1731C8.74472 15.0577 8.14776 14.7743 7.6515 14.3229C7.15524 13.8715 6.80294 13.3221 6.5946 12.6747L7.75163 12.194C7.87876 12.6726 8.1707 13.1071 8.62744 13.4976C9.08417 13.8881 9.56895 14.0834 10.0818 14.0834C10.6555 14.0834 11.148 13.9298 11.5593 13.6226C11.9707 13.3155 12.1763 12.8996 12.1763 12.375C12.1763 11.9049 12 11.5123 11.6475 11.1971C11.2949 10.882 10.7362 10.5908 9.97121 10.3237C8.94664 9.95087 8.18569 9.55183 7.68835 9.12663C7.19102 8.7014 6.94235 8.13142 6.94235 7.41669C6.94235 6.78635 7.17072 6.23053 7.62746 5.74923C8.08419 5.26792 8.68916 4.95889 9.44235 4.82214V3.20837H10.5257V4.82214C11.4669 4.9621 12.0983 5.29731 12.4199 5.82775C12.7415 6.35819 12.9252 6.61594 12.9712 6.60098L11.9135 7.0609C11.7864 6.74252 11.5455 6.46528 11.1908 6.22917C10.836 5.99306 10.4546 5.875 10.0465 5.875C9.54438 5.875 9.10287 6.01736 8.72198 6.30208C8.3411 6.58682 8.15067 6.94446 8.15067 7.37502C8.15067 7.76284 8.31092 8.09858 8.63144 8.38223C8.95195 8.6659 9.60045 8.9808 10.5769 9.32696C11.5759 9.66776 12.2936 10.0697 12.73 10.5329C13.1664 10.996 13.3846 11.6154 13.3846 12.391C13.3846 13.1079 13.1264 13.7318 12.6098 14.2628C12.0932 14.7938 11.3985 15.1127 10.5257 15.2196V16.7917H9.44235Z" fill="#757575"/>
</svg>
