<svg width="20" height="20" viewBox="0 0 20 20" fill="none" xmlns="http://www.w3.org/2000/svg">
<path d="M9.99558 17.6474C9.61926 17.6474 9.29595 17.5178 9.02565 17.2588C8.75535 16.9998 8.60685 16.6827 8.58012 16.3076H11.4199C11.3932 16.6869 11.2432 17.005 10.9699 17.2619C10.6967 17.5189 10.3719 17.6474 9.99558 17.6474ZM7.20835 14.9871V13.9038H12.7916V14.9871H7.20835ZM6.81571 12.5833C6.04008 12.0822 5.44634 11.4251 5.03448 10.6121C4.62262 9.79908 4.41669 8.92836 4.41669 7.99994C4.41669 6.44547 4.95862 5.12629 6.04248 4.04242C7.12635 2.95856 8.44553 2.41663 10 2.41663C11.5545 2.41663 12.8736 2.95856 13.9575 4.04242C15.0414 5.12629 15.5833 6.44547 15.5833 7.99994C15.5833 8.92836 15.3774 9.79908 14.9655 10.6121C14.5537 11.4251 13.9599 12.0822 13.1843 12.5833H6.81571ZM7.16667 11.4999H12.8333C13.3611 11.0694 13.7708 10.5486 14.0625 9.93744C14.3542 9.32633 14.5 8.68049 14.5 7.99994C14.5 6.7454 14.0641 5.68176 13.1923 4.80902C12.3205 3.9363 11.258 3.49994 10.0048 3.49994C8.7516 3.49994 7.6875 3.9363 6.8125 4.80902C5.9375 5.68176 5.5 6.7454 5.5 7.99994C5.5 8.68049 5.64583 9.32633 5.9375 9.93744C6.22917 10.5486 6.63889 11.0694 7.16667 11.4999Z" fill="#757575"/>
</svg>
