<svg width="20" height="20" viewBox="0 0 20 20" fill="none" xmlns="http://www.w3.org/2000/svg">
<path d="M6.00006 14.5834C4.72692 14.5834 3.64476 14.138 2.75356 13.2471C1.86235 12.3563 1.41675 11.2746 1.41675 10.002C1.41675 8.72933 1.86235 7.64698 2.75356 6.75489C3.64476 5.8628 4.72692 5.41675 6.00006 5.41675H14.0001C15.2732 5.41675 16.3554 5.86217 17.2466 6.753C18.1378 7.64383 18.5834 8.72555 18.5834 9.99817C18.5834 11.2708 18.1378 12.3531 17.2466 13.2452C16.3554 14.1373 15.2732 14.5834 14.0001 14.5834H6.00006ZM13.9991 12.2917C14.6354 12.2917 15.1766 12.069 15.6226 11.6236C16.0687 11.1782 16.2917 10.6373 16.2917 10.001C16.2917 9.36469 16.069 8.82352 15.6236 8.37748C15.1782 7.93144 14.6373 7.70841 14.001 7.70841C13.3647 7.70841 12.8235 7.93112 12.3775 8.37654C11.9314 8.82196 11.7084 9.36282 11.7084 9.99912C11.7084 10.6354 11.9311 11.1766 12.3765 11.6226C12.822 12.0687 13.3628 12.2917 13.9991 12.2917Z" fill="#287AB1"/>
</svg>
