<svg width="20" height="20" viewBox="0 0 20 20" fill="none" xmlns="http://www.w3.org/2000/svg">
<path d="M6.00006 14.5834C4.72692 14.5834 3.64476 14.138 2.75356 13.2471C1.86235 12.3563 1.41675 11.2746 1.41675 10.002C1.41675 8.72933 1.86235 7.64698 2.75356 6.75489C3.64476 5.8628 4.72692 5.41675 6.00006 5.41675H14.0001C15.2732 5.41675 16.3554 5.86217 17.2466 6.753C18.1378 7.64383 18.5834 8.72555 18.5834 9.99817C18.5834 11.2708 18.1378 12.3531 17.2466 13.2452C16.3554 14.1373 15.2732 14.5834 14.0001 14.5834H6.00006ZM6.00006 13.5001H14.0001C14.9723 13.5001 15.7987 13.1598 16.4792 12.4792C17.1598 11.7987 17.5001 10.9723 17.5001 10.0001C17.5001 9.02784 17.1598 8.20145 16.4792 7.52089C15.7987 6.84034 14.9723 6.50006 14.0001 6.50006H6.00006C5.02784 6.50006 4.20145 6.84034 3.52089 7.52089C2.84034 8.20145 2.50006 9.02784 2.50006 10.0001C2.50006 10.9723 2.84034 11.7987 3.52089 12.4792C4.20145 13.1598 5.02784 13.5001 6.00006 13.5001ZM5.99912 12.2917C6.63543 12.2917 7.1766 12.069 7.62264 11.6236C8.06869 11.1782 8.29171 10.6373 8.29171 10.001C8.29171 9.36469 8.069 8.82352 7.62358 8.37748C7.17816 7.93144 6.6373 7.70841 6.001 7.70841C5.36469 7.70841 4.82352 7.93112 4.37748 8.37654C3.93144 8.82196 3.70842 9.36282 3.70842 9.99912C3.70842 10.6354 3.93112 11.1766 4.37654 11.6226C4.82196 12.0687 5.36282 12.2917 5.99912 12.2917Z" fill="#287AB1"/>
</svg>
