<svg width="20" height="20" viewBox="0 0 20 20" fill="none" xmlns="http://www.w3.org/2000/svg">
<path d="M17.5834 5.7565V14.2436C17.5834 14.609 17.4539 14.9237 17.1948 15.1875C16.9358 15.4514 16.6187 15.5834 16.2436 15.5834H3.7565C3.39111 15.5834 3.07647 15.4514 2.81258 15.1875C2.54869 14.9237 2.41675 14.609 2.41675 14.2436V5.7565C2.41675 5.39111 2.54869 5.07647 2.81258 4.81258C3.07647 4.54869 3.39111 4.41675 3.7565 4.41675H16.2436C16.6187 4.41675 16.9358 4.54869 17.1948 4.81258C17.4539 5.07647 17.5834 5.39111 17.5834 5.7565ZM3.50006 7.33662H16.5001V5.7565C16.5001 5.69239 16.4734 5.63362 16.4199 5.58019C16.3665 5.52677 16.3077 5.50006 16.2436 5.50006H3.7565C3.69239 5.50006 3.63362 5.52677 3.58019 5.58019C3.52677 5.63362 3.50006 5.69239 3.50006 5.7565V7.33662ZM3.50006 9.6635V14.2436C3.50006 14.3077 3.52677 14.3665 3.58019 14.4199C3.63362 14.4734 3.69239 14.5001 3.7565 14.5001H16.2436C16.3077 14.5001 16.3665 14.4734 16.4199 14.4199C16.4734 14.3665 16.5001 14.3077 16.5001 14.2436V9.6635H3.50006Z" fill="#757575"/>
</svg>
