<svg width="20" height="20" viewBox="0 0 20 20" fill="none" xmlns="http://www.w3.org/2000/svg">
<path d="M8.77092 10.4167C8.45915 10.4167 8.20306 10.2989 8.00264 10.0633C7.80223 9.82774 7.72873 9.55291 7.78214 9.23881L7.99208 7.94717C8.08182 7.45144 8.31632 7.04466 8.6956 6.72683C9.07487 6.40898 9.5103 6.25006 10.0019 6.25006C10.5049 6.25006 10.9461 6.40898 11.3254 6.72683C11.7046 7.04466 11.9391 7.45144 12.0289 7.94717L12.2388 9.23881C12.2922 9.55291 12.2187 9.82774 12.0183 10.0633C11.8179 10.2989 11.5618 10.4167 11.25 10.4167H8.77092ZM9.06256 9.16671H10.9584L10.7917 8.14587C10.7639 7.95143 10.6737 7.79518 10.5209 7.67712C10.3681 7.55907 10.1945 7.50004 10.0001 7.50004C9.80562 7.50004 9.63548 7.55907 9.48964 7.67712C9.34381 7.79518 9.257 7.95143 9.22923 8.14587L9.06256 9.16671ZM2.85681 11.109C2.58481 11.1229 2.3493 11.0701 2.15029 10.9508C1.95128 10.8314 1.82162 10.6465 1.76131 10.3958C1.73353 10.2869 1.72792 10.1792 1.74448 10.0729C1.76105 9.96663 1.79176 9.86505 1.83662 9.76819C1.83662 9.78028 1.82968 9.75606 1.81579 9.69552C1.79336 9.66774 1.7346 9.52512 1.63952 9.26764C1.61709 9.12235 1.6354 8.98507 1.69446 8.85579C1.75351 8.72653 1.83028 8.61489 1.92477 8.52087C1.93012 8.52087 1.94133 8.50965 1.95841 8.48721C1.98251 8.26167 2.07588 8.07173 2.23852 7.91741C2.40114 7.76309 2.59998 7.68594 2.83502 7.68594C2.86066 7.68594 2.9739 7.70837 3.17475 7.75325L3.22925 7.74044C3.288 7.67899 3.36439 7.63291 3.45841 7.60221C3.55243 7.57148 3.65232 7.55612 3.75808 7.55612C3.88987 7.55612 4.00669 7.57642 4.10852 7.61702C4.21037 7.65763 4.291 7.72187 4.35041 7.80973C4.3623 7.80973 4.37122 7.81287 4.37716 7.81914C4.38311 7.82542 4.39203 7.82856 4.40391 7.82856C4.5663 7.84245 4.71071 7.89361 4.83712 7.98204C4.96354 8.07047 5.05685 8.19132 5.11704 8.34458C5.13947 8.43112 5.14855 8.51152 5.14429 8.58577C5.14001 8.66002 5.12398 8.73347 5.09621 8.80612C5.09621 8.81466 5.10315 8.83977 5.11704 8.88144C5.20358 8.96798 5.26928 9.05959 5.31414 9.15627C5.35902 9.25296 5.38146 9.3558 5.38146 9.46477C5.38146 9.5043 5.3478 9.62876 5.2805 9.83816C5.27196 9.85525 5.27196 9.88035 5.2805 9.91348C5.28585 9.9295 5.29706 10.0246 5.31414 10.1987C5.31414 10.4486 5.20976 10.6628 5.001 10.8412C4.79222 11.0197 4.53871 11.109 4.24046 11.109H2.85681ZM16.4699 11.1539C16.0787 11.1539 15.7426 11.0139 15.4616 10.7339C15.1806 10.4539 15.0401 10.1173 15.0401 9.7241C15.0401 9.58113 15.0608 9.44758 15.1022 9.32346C15.1437 9.19933 15.1999 9.07816 15.2709 8.95996L14.7702 8.51804C14.651 8.42378 14.6301 8.30533 14.7076 8.16271C14.785 8.02008 14.8952 7.94877 15.0382 7.94877H16.468C16.8611 7.94877 17.1969 8.08811 17.4752 8.36679C17.7535 8.64547 17.8927 8.98048 17.8927 9.37181V9.72758C17.8927 10.1165 17.7534 10.4514 17.4747 10.7324C17.1961 11.0134 16.8612 11.1539 16.4699 11.1539ZM0.416748 14.8237V13.8077C0.416748 13.2446 0.707234 12.7871 1.28821 12.4351C1.86915 12.0831 2.62307 11.907 3.54998 11.907C3.7197 11.907 3.88255 11.9119 4.03854 11.9215C4.19453 11.9311 4.34356 11.9498 4.48564 11.9776C4.3286 12.2233 4.20948 12.4848 4.12829 12.7621C4.0471 13.0394 4.0065 13.3347 4.0065 13.6482V14.8237H0.416748ZM5.41675 14.8237V13.6779C5.41675 12.8819 5.84028 12.2436 6.68733 11.7628C7.53437 11.282 8.63935 11.0417 10.0023 11.0417C11.3779 11.0417 12.4854 11.282 13.3246 11.7628C14.1638 12.2436 14.5834 12.8819 14.5834 13.6779V14.8237H5.41675ZM16.4584 11.907C17.3959 11.907 18.1511 12.0831 18.724 12.4351C19.2969 12.7871 19.5834 13.2446 19.5834 13.8077V14.8237H15.9936V13.6482C15.9936 13.3347 15.9565 13.0394 15.8822 12.7621C15.808 12.4848 15.6966 12.2233 15.5481 11.9776C15.6902 11.9498 15.8376 11.9311 15.9903 11.9215C16.143 11.9119 16.299 11.907 16.4584 11.907ZM9.99908 12.2916C9.13328 12.2916 8.38921 12.4065 7.76687 12.6362C7.14455 12.8659 6.79921 13.149 6.73083 13.4856V13.5737H13.2821V13.4856C13.2052 13.149 12.859 12.8659 12.2437 12.6362C11.6283 12.4065 10.8801 12.2916 9.99908 12.2916Z" fill="#757575"/>
</svg>
