<svg width="20" height="20" viewBox="0 0 20 20" fill="none" xmlns="http://www.w3.org/2000/svg">
<path d="M4.83374 14.7273C5.666 14.1536 6.49399 13.7089 7.3177 13.3932C8.14142 13.0775 9.03565 12.9197 10.0004 12.9197C10.9651 12.9197 11.8615 13.0775 12.6895 13.3932C13.5175 13.7089 14.3476 14.1536 15.1799 14.7273C15.7856 14.0254 16.2357 13.2843 16.53 12.5039C16.8244 11.7235 16.9715 10.8888 16.9715 9.99978C16.9715 8.03397 16.3011 6.38066 14.9603 5.03984C13.6195 3.69903 11.9662 3.02863 10.0004 3.02863C8.03458 3.02863 6.38127 3.69903 5.04045 5.03984C3.69964 6.38066 3.02924 8.03397 3.02924 9.99978C3.02924 10.8888 3.17855 11.7235 3.47716 12.5039C3.77577 13.2843 4.22796 14.0254 4.83374 14.7273ZM9.99586 10.4725C9.24674 10.4725 8.61657 10.2154 8.10537 9.70117C7.59414 9.18695 7.33853 8.55528 7.33853 7.80615C7.33853 7.05704 7.59565 6.42687 8.10989 5.91565C8.62411 5.40444 9.25578 5.14884 10.0049 5.14884C10.754 5.14884 11.3842 5.40595 11.8954 5.92017C12.4066 6.43439 12.6622 7.06607 12.6622 7.81519C12.6622 8.56432 12.4051 9.19448 11.8909 9.70569C11.3767 10.2169 10.745 10.4725 9.99586 10.4725ZM10.0101 17.9164C8.91283 17.9164 7.88337 17.7097 6.92176 17.2962C5.96016 16.8828 5.12016 16.3163 4.40174 15.5967C3.68334 14.8772 3.11741 14.0388 2.70395 13.0816C2.29048 12.1243 2.08374 11.0966 2.08374 9.99823C2.08374 8.8999 2.29048 7.87264 2.70395 6.91646C3.11741 5.96027 3.68391 5.12239 4.40345 4.40284C5.123 3.6833 5.96139 3.1168 6.91859 2.70334C7.87582 2.28987 8.90359 2.08313 10.0019 2.08313C11.1003 2.08313 12.1275 2.28987 13.0837 2.70334C14.0399 3.1168 14.8778 3.6833 15.5973 4.40284C16.3169 5.12239 16.8834 5.96049 17.2968 6.91713C17.7103 7.87377 17.917 8.89807 17.917 9.99003C17.917 11.0873 17.7103 12.1168 17.2968 13.0784C16.8834 14.04 16.3169 14.88 15.5973 15.5984C14.8778 16.3168 14.0397 16.8828 13.083 17.2962C12.1264 17.7097 11.1021 17.9164 10.0101 17.9164ZM10.0004 16.9709C10.775 16.9709 11.5388 16.8478 12.2921 16.6015C13.0453 16.3553 13.7547 15.957 14.4203 15.4068C13.7547 14.9175 13.0498 14.5382 12.3057 14.269C11.5616 13.9998 10.7931 13.8652 10.0004 13.8652C9.20765 13.8652 8.43789 13.9984 7.69109 14.265C6.94429 14.5315 6.24343 14.9122 5.58853 15.4068C6.24878 15.957 6.95551 16.3553 7.70872 16.6015C8.46193 16.8478 9.22582 16.9709 10.0004 16.9709ZM10.0015 9.52703C10.4997 9.52703 10.9101 9.36533 11.2328 9.04194C11.5554 8.71854 11.7167 8.30775 11.7167 7.80957C11.7167 7.31137 11.555 6.90095 11.2316 6.5783C10.9082 6.25564 10.4975 6.09432 9.99926 6.09432C9.50108 6.09432 9.09066 6.25602 8.76801 6.57942C8.44536 6.90281 8.28403 7.3136 8.28403 7.8118C8.28403 8.30998 8.44573 8.7204 8.76914 9.04305C9.09253 9.3657 9.50332 9.52703 10.0015 9.52703Z" fill="#757575"/>
</svg>
