<svg width="20" height="20" viewBox="0 0 20 20" fill="none" xmlns="http://www.w3.org/2000/svg">
<path d="M10 9.74357C9.28126 9.74357 8.67103 9.49271 8.16929 8.99099C7.66756 8.48925 7.41669 7.87901 7.41669 7.16028C7.41669 6.44153 7.66756 5.83129 8.16929 5.32957C8.67103 4.82783 9.28126 4.57697 10 4.57697C10.7187 4.57697 11.329 4.82783 11.8307 5.32957C12.3324 5.83129 12.5833 6.44153 12.5833 7.16028C12.5833 7.87901 12.3324 8.48925 11.8307 8.99099C11.329 9.49271 10.7187 9.74357 10 9.74357ZM4.41669 15.423V13.9038C4.41669 13.6485 4.49281 13.4025 4.64506 13.1659C4.7973 12.9292 5.01017 12.7244 5.28367 12.5513C6.01017 12.1336 6.77368 11.8133 7.57421 11.5906C8.37474 11.3678 9.18189 11.2564 9.99567 11.2564C10.8094 11.2564 11.618 11.3678 12.4215 11.5906C13.2249 11.8133 13.9898 12.1336 14.7163 12.5513C14.9898 12.7105 15.2027 12.9119 15.3549 13.1555C15.5072 13.399 15.5833 13.6485 15.5833 13.9038V15.423H4.41669ZM5.5 14.3397H14.5V13.9038C14.5 13.8159 14.4683 13.7332 14.4049 13.6557C14.3415 13.5782 14.2541 13.5124 14.1426 13.4583C13.5358 13.0908 12.8801 12.8125 12.1756 12.6234C11.4711 12.4343 10.7459 12.3397 10 12.3397C9.25414 12.3397 8.52894 12.4343 7.82442 12.6234C7.11989 12.8125 6.46421 13.0908 5.85737 13.4583C5.74519 13.5353 5.65759 13.6089 5.59456 13.6793C5.53152 13.7498 5.5 13.8246 5.5 13.9038V14.3397ZM10.0044 8.66028C10.4181 8.66028 10.7708 8.51297 11.0625 8.21834C11.3542 7.92373 11.5 7.56956 11.5 7.15584C11.5 6.74213 11.3527 6.38945 11.0581 6.09778C10.7635 5.80611 10.4093 5.66028 9.99558 5.66028C9.58186 5.66028 9.22917 5.80758 8.9375 6.1022C8.64583 6.39682 8.5 6.75099 8.5 7.1647C8.5 7.57842 8.64731 7.93111 8.94192 8.22278C9.23654 8.51445 9.59071 8.66028 10.0044 8.66028Z" fill="#757575"/>
</svg>
