<svg width="20" height="20" viewBox="0 0 20 20" fill="none" xmlns="http://www.w3.org/2000/svg">
<path d="M11.9583 7.11698C11.7916 6.70032 11.5451 6.37393 11.2187 6.13782C10.8923 5.9017 10.5 5.78365 10.0416 5.78365C9.79162 5.78365 9.53788 5.82372 9.28039 5.90386C9.02292 5.98398 8.79696 6.12928 8.60252 6.33975L7.69868 5.43592C7.89848 5.22545 8.15836 5.0457 8.47833 4.89667C8.79832 4.74763 9.0972 4.65495 9.37498 4.61863V3.06094H10.6249V4.59298C11.1645 4.68058 11.6596 4.89132 12.1105 5.22519C12.5614 5.55905 12.9048 6.02352 13.141 6.61861L11.9583 7.11698ZM16.3076 18.0641L12.6506 14.407C12.4316 14.6741 12.1281 14.8963 11.7403 15.0737C11.3525 15.251 10.9807 15.3482 10.6249 15.3653V16.923H9.37498V15.3237C8.63993 15.1613 8.03871 14.8418 7.57129 14.3653C7.10389 13.8889 6.75213 13.2777 6.51602 12.532L7.74996 12.0417C7.92197 12.625 8.20455 13.125 8.5977 13.5417C8.99087 13.9583 9.51384 14.1667 10.1666 14.1667C10.4914 14.1667 10.786 14.1074 11.0505 13.9888C11.3149 13.8702 11.547 13.7083 11.7468 13.5032L1.93591 3.69232L2.8141 2.81415L17.1858 17.1859L16.3076 18.064V18.0641Z" fill="#757575"/>
</svg>
