<svg width="20" height="20" viewBox="0 0 20 20" fill="none" xmlns="http://www.w3.org/2000/svg">
<path d="M10.0015 17.5833C8.96207 17.5833 7.98148 17.3859 7.05971 16.9912C6.13791 16.5964 5.3311 16.0533 4.63925 15.3618C3.94739 14.6703 3.40401 13.8638 3.0091 12.9424C2.6142 12.0211 2.41675 11.0407 2.41675 10.0013C2.41675 8.94806 2.61411 7.964 3.00883 7.04917C3.40355 6.13432 3.94668 5.33097 4.63821 4.63913C5.32975 3.94727 6.1362 3.40388 7.05756 3.00898C7.97891 2.61408 8.95928 2.41663 9.99866 2.41663C11.0519 2.41663 12.036 2.61399 12.9508 3.00871C13.8657 3.40343 14.669 3.94656 15.3609 4.63808C16.0527 5.32963 16.5961 6.13261 16.991 7.04702C17.3859 7.96143 17.5834 8.94527 17.5834 9.99854C17.5834 11.0379 17.386 12.0185 16.9913 12.9403C16.5966 13.8621 16.0534 14.6689 15.3619 15.3608C14.6704 16.0526 13.8674 16.596 12.953 16.9909C12.0386 17.3858 11.0547 17.5833 10.0015 17.5833ZM10.0001 16.4999C10.7958 16.4999 11.5487 16.3643 12.2587 16.0929C12.9688 15.8215 13.6096 15.4422 14.1812 14.9551L5.04494 5.81884C4.5631 6.39042 4.18516 7.03123 3.91112 7.74127C3.63708 8.45131 3.50006 9.2042 3.50006 9.99994C3.50006 11.8055 4.132 13.3402 5.39589 14.6041C6.65978 15.868 8.19451 16.4999 10.0001 16.4999ZM14.9552 14.181C15.4424 13.6095 15.8216 12.9686 16.093 12.2586C16.3644 11.5486 16.5001 10.7957 16.5001 9.99994C16.5001 8.19438 15.8681 6.65966 14.6042 5.39577C13.3403 4.13188 11.8056 3.49994 10.0001 3.49994C9.20245 3.49994 8.44776 3.63429 7.73598 3.90298C7.0242 4.17169 6.38519 4.5523 5.81896 5.04481L14.9552 14.181Z" fill="#757575"/>
</svg>
