<svg width="20" height="20" viewBox="0 0 20 20" fill="none" xmlns="http://www.w3.org/2000/svg">
<path d="M10.0001 17.5833C8.95625 17.5833 7.97362 17.3856 7.05217 16.9903C6.13069 16.595 5.3254 16.0528 4.63629 15.3637C3.94719 14.6746 3.405 13.8693 3.00971 12.9478C2.6144 12.0264 2.41675 11.0437 2.41675 9.99994C2.41675 8.94759 2.6144 7.96282 3.00971 7.04563C3.405 6.12843 3.94719 5.32528 4.63629 4.63617C5.3254 3.94707 6.13069 3.40488 7.05217 3.00959C7.97362 2.61428 8.95625 2.41663 10.0001 2.41663C11.0524 2.41663 12.0372 2.61428 12.9544 3.00959C13.8716 3.40488 14.6747 3.94707 15.3638 4.63617C16.0529 5.32528 16.5951 6.12843 16.9904 7.04563C17.3857 7.96282 17.5834 8.94759 17.5834 9.99994C17.5834 11.0437 17.3857 12.0264 16.9904 12.9478C16.5951 13.8693 16.0529 14.6746 15.3638 15.3637C14.6747 16.0528 13.8716 16.595 12.9544 16.9903C12.0372 17.3856 11.0524 17.5833 10.0001 17.5833ZM10.0001 16.4615C10.3003 16.1613 10.5818 15.6722 10.8446 14.9943C11.1074 14.3164 11.3094 13.5608 11.4504 12.7275H8.54973C8.70144 13.5822 8.90603 14.3485 9.16352 15.0264C9.42099 15.7043 9.69984 16.1826 10.0001 16.4615ZM8.65714 16.3573C8.39326 15.9406 8.155 15.4161 7.94239 14.7836C7.72978 14.1511 7.56685 13.4657 7.4536 12.7275H4.10581C4.54599 13.6901 5.16753 14.4901 5.97041 15.1274C6.77332 15.7646 7.66889 16.1746 8.65714 16.3573ZM11.343 16.3573C12.3312 16.1746 13.2268 15.7646 14.0297 15.1274C14.8326 14.4901 15.4541 13.6901 15.8943 12.7275H12.5465C12.4066 13.4711 12.2303 14.1591 12.0177 14.7916C11.8051 15.4241 11.5802 15.946 11.343 16.3573ZM3.72762 11.6442H7.34623C7.30777 11.3482 7.28373 11.0584 7.27412 10.7748C7.26451 10.4911 7.25971 10.219 7.25971 9.95827C7.25971 9.69759 7.26451 9.43236 7.27412 9.16259C7.28373 8.89282 7.30777 8.62386 7.34623 8.35569H3.72762C3.6475 8.62493 3.58954 8.89843 3.55375 9.17621C3.51796 9.45399 3.50006 9.72856 3.50006 9.99994C3.50006 10.2713 3.51796 10.5459 3.55375 10.8237C3.58954 11.1014 3.6475 11.375 3.72762 11.6442ZM8.45037 11.6442H11.5497C11.5882 11.3344 11.6122 11.0472 11.6219 10.7828C11.6315 10.5184 11.6363 10.2574 11.6363 9.99994C11.6363 9.74245 11.6315 9.47803 11.6219 9.20667C11.6122 8.93529 11.5882 8.65163 11.5497 8.35569H8.45037C8.41191 8.65163 8.38787 8.93529 8.37825 9.20667C8.36864 9.47803 8.36383 9.74245 8.36383 9.99994C8.36383 10.2574 8.36864 10.5218 8.37825 10.7932C8.38787 11.0646 8.41191 11.3482 8.45037 11.6442ZM12.6539 11.6442H16.2725C16.3526 11.375 16.4106 11.1014 16.4464 10.8237C16.4822 10.5459 16.5001 10.2713 16.5001 9.99994C16.5001 9.72856 16.4822 9.45052 16.4464 9.16579C16.4106 8.88107 16.3526 8.61104 16.2725 8.35569H12.6539C12.6924 8.65163 12.7164 8.94143 12.726 9.22509C12.7356 9.50875 12.7404 9.78093 12.7404 10.0416C12.7404 10.3023 12.7356 10.5675 12.726 10.8373C12.7164 11.1071 12.6924 11.376 12.6539 11.6442ZM12.5465 7.2724H15.8943C15.4488 6.29909 14.8313 5.49913 14.0417 4.87252C13.2522 4.24592 12.3526 3.83327 11.343 3.63454C11.6069 4.07792 11.8424 4.61184 12.0497 5.23631C12.257 5.86079 12.4226 6.53948 12.5465 7.2724ZM8.54973 7.2724H11.4504C11.2987 6.42304 11.0901 5.65273 10.8246 4.96148C10.5591 4.27024 10.2843 3.79588 10.0001 3.5384C9.71587 3.79588 9.44103 4.27024 9.17554 4.96148C8.91004 5.65273 8.70144 6.42304 8.54973 7.2724ZM4.10581 7.2724H7.4536C7.57753 6.53948 7.74314 5.86079 7.95041 5.23631C8.15768 4.61184 8.39326 4.07792 8.65714 3.63454C7.64219 3.83327 6.74127 4.24727 5.95439 4.87654C5.16753 5.50582 4.55134 6.30444 4.10581 7.2724Z" fill="#757575"/>
</svg>
