<svg width="20" height="20" viewBox="0 0 20 20" fill="none" xmlns="http://www.w3.org/2000/svg">
<path d="M1.8622 16.3589C1.70847 16.3589 1.57976 16.3075 1.47608 16.2047C1.3724 16.1018 1.32056 15.9741 1.32056 15.8217C1.32056 15.6692 1.3724 15.54 1.47608 15.4343C1.57976 15.3285 1.70847 15.2756 1.8622 15.2756H18.1378C18.2916 15.2756 18.4203 15.327 18.524 15.4299C18.6276 15.5327 18.6795 15.6604 18.6795 15.8129C18.6795 15.9654 18.6276 16.0945 18.524 16.2003C18.4203 16.306 18.2916 16.3589 18.1378 16.3589H1.8622ZM3.75645 14.2756C3.38134 14.2756 3.06427 14.1461 2.80524 13.8871C2.54622 13.628 2.4167 13.311 2.4167 12.9359V4.94874C2.4167 4.57364 2.54622 4.25658 2.80524 3.99755C3.06427 3.73852 3.38134 3.60901 3.75645 3.60901H16.2436C16.6187 3.60901 16.9358 3.73852 17.1948 3.99755C17.4538 4.25658 17.5833 4.57364 17.5833 4.94874V12.9359C17.5833 13.311 17.4538 13.628 17.1948 13.8871C16.9358 14.1461 16.6187 14.2756 16.2436 14.2756H3.75645ZM3.75645 13.1923H16.2436C16.3077 13.1923 16.3665 13.1656 16.4199 13.1122C16.4733 13.0588 16.5 13 16.5 12.9359V4.94874C16.5 4.88463 16.4733 4.82586 16.4199 4.77245C16.3665 4.71902 16.3077 4.6923 16.2436 4.6923H3.75645C3.69234 4.6923 3.63357 4.71902 3.58014 4.77245C3.52672 4.82586 3.50002 4.88463 3.50002 4.94874V12.9359C3.50002 13 3.52672 13.0588 3.58014 13.1122C3.63357 13.1656 3.69234 13.1923 3.75645 13.1923Z" fill="#757575"/>
</svg>
